<svg id="Layer_1" data-name="Layer 1" xmlns="http://www.w3.org/2000/svg" viewBox="0 0 384 90"><defs><style>.cls-1{fill-rule:evenodd;}</style></defs><path d="M99.23,46.85V20h10V46.85a14.32,14.32,0,0,0,1,5.51,11.62,11.62,0,0,0,7,6.76,16,16,0,0,0,10.54,0,11.73,11.73,0,0,0,7-6.74,14.35,14.35,0,0,0,1-5.53V20h10V46.85A24.75,24.75,0,0,1,144,56.26,21.27,21.27,0,0,1,131.8,68.35a26.39,26.39,0,0,1-18.53,0,21.57,21.57,0,0,1-7.37-4.74A22.37,22.37,0,0,1,101,56.27,24.29,24.29,0,0,1,99.23,46.85Z"/><path d="M154,70V34.28h9.15v5.13a14.61,14.61,0,0,1,4.74-4.33,13.53,13.53,0,0,1,6.85-1.67q6.27,0,9.46,3.84t3.17,10.61V70h-9.63V50.23c0-2.72-.59-4.68-1.77-5.9a6.35,6.35,0,0,0-4.76-1.81q-4.16,0-6,2.81A13.94,13.94,0,0,0,163.46,53V70Z"/><path d="M195.06,24.05a5.93,5.93,0,0,1,1.72-4.33A5.81,5.81,0,0,1,201.06,18a6,6,0,0,1,6.08,6.07,5.78,5.78,0,0,1-1.75,4.3,5.94,5.94,0,0,1-4.33,1.71,5.85,5.85,0,0,1-6-6Zm1.29,46V34.28h9.42V70Z"/><path d="M210.7,64.92l5.51-7.16a12.52,12.52,0,0,0,4.64,3.37,16.35,16.35,0,0,0,6.64,1.25,8.69,8.69,0,0,0,3.4-.6,2.13,2.13,0,0,0,1.41-2.09,1.82,1.82,0,0,0-.4-1.19,3,3,0,0,0-1.32-.87,17.88,17.88,0,0,0-2.47-.7l-3.77-.83a34,34,0,0,1-4.1-1.15,14.06,14.06,0,0,1-3.82-2,10.49,10.49,0,0,1-2.83-3.25,9.91,9.91,0,0,1-1.11-4.91,9.83,9.83,0,0,1,4-8.41q4-3,11.07-3A22.06,22.06,0,0,1,236,34.84a17.13,17.13,0,0,1,5.85,3.87l-5.31,6.87a10.67,10.67,0,0,0-4.13-2.64,15.11,15.11,0,0,0-5.5-1c-3.05,0-4.57.83-4.57,2.51a1.67,1.67,0,0,0,.38,1.1,3.31,3.31,0,0,0,1.36.85,17.59,17.59,0,0,0,2.6.74l3.93.86A31.34,31.34,0,0,1,235,49.25a12.17,12.17,0,0,1,3.61,2,9.11,9.11,0,0,1,2.46,3.19,10.81,10.81,0,0,1,.93,4.71q0,6.18-4.16,8.95T226.58,70.9a27.74,27.74,0,0,1-9.32-1.48A14,14,0,0,1,210.7,64.92Z"/><path d="M242.71,34.28H253l8,21.3,8.52-21.3h7.64l8.59,21.3,7.92-21.3H304L289.45,70h-7.16L273.36,48.8l-9,21.23h-7.12Z"/><path d="M304.42,59.63a10.56,10.56,0,0,1,.88-4.37,10.15,10.15,0,0,1,2.41-3.37,12.43,12.43,0,0,1,3.59-2.31,14.65,14.65,0,0,1,4.58-1.09l9.81-.87c1.23-.14,1.84-.62,1.84-1.44v-.57A3,3,0,0,0,326,43a8.63,8.63,0,0,0-4.71-1,14.34,14.34,0,0,0-2.79.26,12.33,12.33,0,0,0-2.59.78,7.42,7.42,0,0,0-2.14,1.38,5.54,5.54,0,0,0-1.42,2.14l-7-5a11.78,11.78,0,0,1,5.93-6.09,22.84,22.84,0,0,1,10-2q7.86,0,11.75,3.51T337,48V70.1h-9.43V65.22a13.8,13.8,0,0,1-4.12,3.88,12.5,12.5,0,0,1-6.87,1.73,13.64,13.64,0,0,1-4.87-.84,11.72,11.72,0,0,1-3.82-2.31,10.63,10.63,0,0,1-2.52-3.5A11.1,11.1,0,0,1,304.42,59.63Zm9.81-.48a3.3,3.3,0,0,0,1.3,2.73,6,6,0,0,0,3.77,1,9.38,9.38,0,0,0,3.4-.61,8.33,8.33,0,0,0,2.62-1.6A7,7,0,0,0,327,58.39a7,7,0,0,0,.57-2.82V54.14l-8.86,1.07a6.22,6.22,0,0,0-3.32,1.4A3.35,3.35,0,0,0,314.23,59.15Z"/><path d="M345,84.34V34.28h9.43v5a14.18,14.18,0,0,1,4.92-4.33,14.52,14.52,0,0,1,6.95-1.6,15.83,15.83,0,0,1,6.25,1.26,15.39,15.39,0,0,1,5.22,3.64,17.13,17.13,0,0,1,3.54,5.9,23.13,23.13,0,0,1,1.29,8,23.15,23.15,0,0,1-1.29,8,17.39,17.39,0,0,1-3.51,5.9,14.94,14.94,0,0,1-5.15,3.64A15.53,15.53,0,0,1,366.39,71a13.86,13.86,0,0,1-7.19-1.76,15.86,15.86,0,0,1-4.82-4.31V84.34Zm9.15-32.19a9.23,9.23,0,0,0,2.67,7,9.33,9.33,0,0,0,6.69,2.53,10.31,10.31,0,0,0,3.71-.66,8.63,8.63,0,0,0,3-1.92,9,9,0,0,0,2-3.06,11.06,11.06,0,0,0,0-7.85,9,9,0,0,0-2-3.06,8.59,8.59,0,0,0-3-1.92,10.3,10.3,0,0,0-3.73-.66,9,9,0,0,0-9.36,9.56Z"/><path d="M23.31,11.7c-1-.15-1-.17-.55-.24a15.09,15.09,0,0,1,4.31.38c3.29.78,6.27,2.77,9.46,6.29l.85.94,1.21-.19A25.7,25.7,0,0,1,53.23,20.7a19,19,0,0,1,3.31,1.92,4.73,4.73,0,0,1,.31,1.28,8,8,0,0,1-.49,5c-.36.66-.38.87-.14,1.43a1.38,1.38,0,0,0,1.25.79c1.08,0,2.24-1.74,2.78-4.15l.21-1,.43.48c2.32,2.62,4.14,6.18,4.46,8.72l.08.67L65,35.25a7.55,7.55,0,0,0-2.21-2.31c-1.56-1-3.21-1.37-7.57-1.6a30.55,30.55,0,0,1-8.39-1.26c-3.76-1.22-5.66-2.84-10.13-8.67a43.55,43.55,0,0,0-4.44-5.18A15.89,15.89,0,0,0,23.31,11.7Z"/><path d="M57.43,17.48a10.66,10.66,0,0,1,.81-3.93,4,4,0,0,1,.4-.75,3.06,3.06,0,0,1-.19.68,8.94,8.94,0,0,0-.16,4c.3,2.05.47,2.34,2.65,4.55,1,1,2.21,2.35,2.64,2.91l.79,1-.79-.73a33.67,33.67,0,0,0-3.64-2.88c-.33-.17-.38-.16-.58,0s-.22.45-.25,1.76a9.86,9.86,0,0,1-1,4.64c-.37.7-.42.55-.09-.24.24-.6.27-.86.27-2.83,0-3.95-.48-4.9-3.25-6.52a28.5,28.5,0,0,0-2.57-1.33,9.67,9.67,0,0,1-1.25-.6,25.63,25.63,0,0,1,3.86,1.12c1.62.61,1.89.69,2.08.62S57.37,18.6,57.43,17.48Z"/><path d="M25.17,24.24a16.05,16.05,0,0,1-2.89-9.79l.09-.95.44.08a10.93,10.93,0,0,1,2.93,1.09c1.85,1.11,2.64,2.57,3.45,6.33.24,1.1.55,2.35.7,2.77a18.53,18.53,0,0,0,1.81,3.3c.51.74.17,1.09-1,1C29,27.9,26.68,26.3,25.17,24.24Z"/><path d="M55.07,44.05C46,40.41,42.78,37.25,42.78,31.92a8.92,8.92,0,0,1,.06-1.42,6.19,6.19,0,0,1,.78.57c1.85,1.47,3.91,2.1,9.62,2.93a39.47,39.47,0,0,1,7,1.46c5.55,1.82,9,5.54,9.8,10.59a17.44,17.44,0,0,1-.28,5.67A11.23,11.23,0,0,1,68.28,55c-.07,0-.14-.24-.16-.6a7.32,7.32,0,0,0-2.68-5.13C63.6,47.72,61.13,46.47,55.07,44.05Z"/><path d="M48.69,45.56a14.21,14.21,0,0,0-.44-1.91L48,43l.43.48a7.63,7.63,0,0,1,1.47,2.65,5.68,5.68,0,0,1,.33,2.53,5.56,5.56,0,0,1-.32,2.44,7.68,7.68,0,0,1-1.92,3,10.91,10.91,0,0,1-6.87,3c-.54.07-2.1.18-3.47.25a27,27,0,0,0-7.78,1.27,1.49,1.49,0,0,1-.58.13,11,11,0,0,1,2.46-1.45c1.62-.78,3.23-1.2,6.85-1.8,1.79-.3,3.63-.66,4.1-.8C47.15,53.34,49.42,49.86,48.69,45.56Z"/><path d="M52.86,52.91A10.4,10.4,0,0,1,52,45.52c.08-.25.19-.45.26-.45a2.34,2.34,0,0,1,.63.34c.56.37,1.67,1,4.65,2.61,3.71,2,5.82,3.56,7.26,5.34a11.64,11.64,0,0,1,2.42,5.5A18.94,18.94,0,0,1,67,64.27,13.48,13.48,0,0,1,60.4,73a8,8,0,0,1-1,.47,3.65,3.65,0,0,1,.39-1,8.88,8.88,0,0,0,.4-7.06,30.31,30.31,0,0,0-3.69-6.56A43.84,43.84,0,0,1,52.86,52.91Z"/><path d="M18.72,66.83a24.7,24.7,0,0,1,11.39-5.46A18,18,0,0,1,36,61.6a10.17,10.17,0,0,1,5.77,3.68c1.11,1.62,1.59,3,2.08,6.18.2,1.24.41,2.49.48,2.77a6.13,6.13,0,0,0,2,3.59c1.42,1,3.88,1.1,6.3.16a2.85,2.85,0,0,1,.8-.24,7.61,7.61,0,0,1-2,1.32,6.87,6.87,0,0,1-3.3.8c-2.22,0-4.06-1.12-5.59-3.41a25.64,25.64,0,0,1-1.51-3c-1.62-3.68-2.42-4.8-4.31-6A5.55,5.55,0,0,0,31.42,67a3.43,3.43,0,0,0-1.17,5.35,4.65,4.65,0,0,0,2.61,1.35A2.78,2.78,0,0,0,36,70.89a2.16,2.16,0,0,0-1.5-2.22c-1.47-.66-3,.11-3,1.48a1.22,1.22,0,0,0,.85,1.22c.37.17.38.18.08.12-1.35-.28-1.67-1.89-.58-3,1.3-1.29,4-.72,4.91,1a4.5,4.5,0,0,1,.09,3.1,4.3,4.3,0,0,1-5.2,2.46c-1.52-.39-2.15-.81-4-2.69-3.2-3.27-4.44-3.9-9-4.62l-.89-.13Z"/><path class="cls-1" d="M3.73,8.3c10.67,12.87,18,18.18,18.83,19.3.68.92.42,1.76-.73,2.41a7.17,7.17,0,0,1-2.63.73,1.33,1.33,0,0,1-1-.29c-.44-.41-.68-.33-2.91-4.26-3.09-4.77-5.67-8.72-5.74-8.79s-.17-.15,5.43,9.8a3.55,3.55,0,0,1,.18,3.13c0,.6-.17.92-.91,1.74C13,33.45,12.45,35,12.05,38.2c-.45,3.6-1.72,6.13-5.22,10.48a20.42,20.42,0,0,0-2.9,4A7.28,7.28,0,0,0,3,56.35a11.41,11.41,0,0,0,.6,4.49,16.09,16.09,0,0,0,2.19,4.29,9.93,9.93,0,0,1,1.68,3.35c0,.38.07.38,1.73,0,4-.89,7.17-2.45,9-4.37a4.12,4.12,0,0,0,1.39-3.46,3.32,3.32,0,0,0-.32-1.9c-.47-1-1.33-1.82-3.21-3.11-2.48-1.68-3.53-3-3.82-4.89-.24-1.53,0-2.6,1.4-5.45a16.43,16.43,0,0,0,2-7.19c.15-1.92.36-2.67.92-3.28a3.46,3.46,0,0,1,2.53-1.05,8.58,8.58,0,0,0,5-2,4.34,4.34,0,0,0,1.57-3.32l.06-1.07-.6-.69C23,24.19,2.29,6.34,2.16,6.34S2.84,7.22,3.73,8.3Zm5,50a1.89,1.89,0,0,0-.59-2.49c-.76-.5-2-.27-2,.39,0,.21.12.35.37.48.42.22.45.47.12,1s-.31,1,.08,1.25A1.34,1.34,0,0,0,8.7,58.3Z"/><path class="cls-1" d="M27.25,34.35a4.12,4.12,0,0,0-2.49,2.71A3.76,3.76,0,0,0,25,39.49c.49.65,1,.82,2.24.81,2.49,0,4.67-1.08,4.92-2.41.21-1.09-.75-2.61-2.06-3.27A5,5,0,0,0,27.25,34.35Zm2.92,2.27c.39-.54.22-1.13-.44-1.53-1.25-.75-3.13-.13-3.13,1,0,.58,1,1.22,1.88,1.22A2.42,2.42,0,0,0,30.17,36.62Z"/></svg>