<svg id="Layer_1" data-name="Layer 1" xmlns="http://www.w3.org/2000/svg" xmlns:xlink="http://www.w3.org/1999/xlink" viewBox="0 0 388 90"><defs><style>.cls-1,.cls-2{fill:none;}.cls-2{clip-rule:evenodd;}.cls-217,.cls-3{fill:#fff;}.cls-3,.cls-4{fill-rule:evenodd;}.cls-4{fill:#0e0f23;}.cls-5{clip-path:url(#clip-path);}.cls-6{clip-path:url(#clip-path-2);}.cls-7{fill:#27b0e6;}.cls-8{fill:#28b0e6;}.cls-9{fill:#29afe5;}.cls-10{fill:#2aafe5;}.cls-11{fill:#2baee5;}.cls-12{fill:#2caee4;}.cls-13{fill:#2dade4;}.cls-14{fill:#2eade4;}.cls-15{fill:#2face3;}.cls-16{fill:#30ace3;}.cls-17{fill:#31ace3;}.cls-18{fill:#32abe2;}.cls-19{fill:#33abe2;}.cls-20{fill:#34aae2;}.cls-21{fill:#35aae1;}.cls-22{fill:#36a9e1;}.cls-23{fill:#37a9e1;}.cls-24{fill:#38a8e0;}.cls-25{fill:#39a8e0;}.cls-26{fill:#3aa7e0;}.cls-27{fill:#3ba7df;}.cls-28{fill:#3ca7df;}.cls-29{fill:#3da6df;}.cls-30{fill:#3ea6de;}.cls-31{fill:#3fa5de;}.cls-32{fill:#40a5de;}.cls-33{fill:#41a4dd;}.cls-34{fill:#42a4dd;}.cls-35{fill:#43a3dd;}.cls-36{fill:#44a3dc;}.cls-37{fill:#45a3dc;}.cls-38{fill:#46a2dc;}.cls-39{fill:#47a2db;}.cls-40{fill:#48a1db;}.cls-41{fill:#49a1db;}.cls-42{fill:#4aa0da;}.cls-43{fill:#4ba0da;}.cls-44{fill:#4c9fda;}.cls-45{fill:#4d9fd9;}.cls-46{fill:#4e9fd9;}.cls-47{fill:#4f9ed9;}.cls-48{fill:#509ed8;}.cls-49{fill:#519dd8;}.cls-50{fill:#529dd8;}.cls-51{fill:#539cd7;}.cls-52{fill:#549cd7;}.cls-53{fill:#559bd7;}.cls-54{fill:#569bd6;}.cls-55{fill:#579ad6;}.cls-56{fill:#589ad6;}.cls-57{fill:#599ad5;}.cls-58{fill:#5a99d5;}.cls-59{fill:#5b99d5;}.cls-60{fill:#5c98d4;}.cls-61{fill:#5d98d4;}.cls-62{fill:#5e97d4;}.cls-63{fill:#5f97d3;}.cls-64{fill:#6096d3;}.cls-65{fill:#6196d3;}.cls-66{fill:#6296d2;}.cls-67{fill:#6395d2;}.cls-68{fill:#6495d2;}.cls-69{fill:#6594d1;}.cls-70{fill:#6694d1;}.cls-71{fill:#6793d1;}.cls-72{fill:#6893d0;}.cls-73{fill:#6992d0;}.cls-74{fill:#6a92d0;}.cls-75{fill:#6b92cf;}.cls-76{fill:#6c91cf;}.cls-77{fill:#6d91cf;}.cls-78{fill:#6e90ce;}.cls-79{fill:#6f90ce;}.cls-80{fill:#708fce;}.cls-81{fill:#718fcd;}.cls-82{fill:#728ecd;}.cls-83{fill:#738ecd;}.cls-84{fill:#758ecd;}.cls-85{fill:#768dcc;}.cls-86{fill:#778dcc;}.cls-87{fill:#788ccc;}.cls-88{fill:#798ccb;}.cls-89{fill:#7a8bcb;}.cls-90{fill:#7b8bcb;}.cls-91{fill:#7c8aca;}.cls-92{fill:#7d8aca;}.cls-93{fill:#7e89ca;}.cls-94{fill:#7f89c9;}.cls-95{fill:#8089c9;}.cls-96{fill:#8188c9;}.cls-97{fill:#8288c8;}.cls-98{fill:#8387c8;}.cls-99{fill:#8487c8;}.cls-100{fill:#8586c7;}.cls-101{fill:#8686c7;}.cls-102{fill:#8785c7;}.cls-103{fill:#8885c6;}.cls-104{fill:#8985c6;}.cls-105{fill:#8a84c6;}.cls-106{fill:#8b84c5;}.cls-107{fill:#8c83c5;}.cls-108{fill:#8d83c5;}.cls-109{fill:#8e82c4;}.cls-110{fill:#8f82c4;}.cls-111{fill:#9081c4;}.cls-112{fill:#9181c3;}.cls-113{fill:#9281c3;}.cls-114{fill:#9380c3;}.cls-115{fill:#9480c2;}.cls-116{fill:#957fc2;}.cls-117{fill:#967fc2;}.cls-118{fill:#977ec1;}.cls-119{fill:#987ec1;}.cls-120{fill:#997dc1;}.cls-121{fill:#9a7dc0;}.cls-122{fill:#9b7cc0;}.cls-123{fill:#9c7cc0;}.cls-124{fill:#9d7cbf;}.cls-125{fill:#9e7bbf;}.cls-126{fill:#9f7bbf;}.cls-127{fill:#a07abe;}.cls-128{fill:#a17abe;}.cls-129{fill:#a279be;}.cls-130{fill:#a379bd;}.cls-131{fill:#a478bd;}.cls-132{fill:#a578bd;}.cls-133{fill:#a678bc;}.cls-134{fill:#a777bc;}.cls-135{fill:#a877bc;}.cls-136{fill:#a976bb;}.cls-137{fill:#aa76bb;}.cls-138{fill:#ab75bb;}.cls-139{fill:#ac75ba;}.cls-140{fill:#ad74ba;}.cls-141{fill:#ae74ba;}.cls-142{fill:#af74b9;}.cls-143{fill:#b073b9;}.cls-144{fill:#b173b9;}.cls-145{fill:#b272b8;}.cls-146{fill:#b372b8;}.cls-147{fill:#b471b8;}.cls-148{fill:#b571b7;}.cls-149{fill:#b670b7;}.cls-150{fill:#b770b7;}.cls-151{fill:#b86fb6;}.cls-152{fill:#b96fb6;}.cls-153{fill:#ba6fb6;}.cls-154{fill:#bb6eb5;}.cls-155{fill:#bc6eb5;}.cls-156{fill:#bd6db5;}.cls-157{fill:#be6db4;}.cls-158{fill:#bf6cb4;}.cls-159{fill:#c06cb4;}.cls-160{fill:#c16bb3;}.cls-161{fill:#c26bb3;}.cls-162{fill:#c36bb3;}.cls-163{fill:#c46ab2;}.cls-164{fill:#c56ab2;}.cls-165{fill:#c669b2;}.cls-166{fill:#c769b1;}.cls-167{fill:#c868b1;}.cls-168{fill:#c968b1;}.cls-169{fill:#ca67b0;}.cls-170{fill:#cb67b0;}.cls-171{fill:#cc66b0;}.cls-172{fill:#cd66af;}.cls-173{fill:#ce66af;}.cls-174{fill:#cf65af;}.cls-175{fill:#d065ae;}.cls-176{fill:#d164ae;}.cls-177{fill:#d264ad;}.cls-178{fill:#d363ad;}.cls-179{fill:#d463ad;}.cls-180{fill:#d562ac;}.cls-181{fill:#d662ac;}.cls-182{fill:#d761ac;}.cls-183{fill:#d861ab;}.cls-184{fill:#d961ab;}.cls-185{fill:#da60ab;}.cls-186{fill:#db60aa;}.cls-187{fill:#dc5faa;}.cls-188{fill:#dd5faa;}.cls-189{fill:#df5ea9;}.cls-190{fill:#e05ea9;}.cls-191{fill:#e15da9;}.cls-192{fill:#e25da8;}.cls-193{fill:#e35ca8;}.cls-194{fill:#e45ca8;}.cls-195{fill:#e55ca7;}.cls-196{fill:#e65ba7;}.cls-197{fill:#e75ba7;}.cls-198{fill:#e85aa6;}.cls-199{fill:#e95aa6;}.cls-200{fill:#ea59a6;}.cls-201{fill:#eb59a5;}.cls-202{fill:#ec58a5;}.cls-203{fill:#ed58a4;}.cls-204{fill:#ee57a4;}.cls-205{fill:#ef57a4;}.cls-206{fill:#f057a3;}.cls-207{fill:#f156a3;}.cls-208{fill:#f256a3;}.cls-209{fill:#f355a2;}.cls-210{fill:#f455a2;}.cls-211{fill:#f554a2;}.cls-212{fill:#f654a1;}.cls-213{fill:#f753a1;}.cls-214{fill:#f853a1;}.cls-215{fill:#f952a0;}.cls-216{fill:#fa52a0;}</style><clipPath id="clip-path"><path id="SVGID" class="cls-1" d="M21.86,10.68c2.38-3.33,7-4.8,12.92-4.32C43,7,53.85,11.43,64.32,18.88s18.08,16.42,21.33,24c2.38,5.47,2.46,10.31.08,13.64L69.4,79.31c-2.38,3.33-7,4.79-12.93,4.32-8.21-.72-19.11-5.08-29.54-12.57S8.86,54.68,5.56,47.15c-2.37-5.47-2.45-10.31-.07-13.64ZM83.47,54.84v0c1.9-2.61,1.51-6.5-.36-10.86C80,36.76,72.65,28.32,62.66,21.18s-20.3-11.37-28.11-12c-4.76-.4-8.53.48-10.43,3.13l-.08.16c-1.78,2.66-1.39,6.42.48,10.71C27.65,30.38,35,38.83,44.93,46S65.23,57.34,73,58c4.68.35,8.37-.48,10.31-3l.12-.2ZM58,27.65c5,3.56,8.68,7.81,10.23,11.41.91,2,1.15,3.81.23,5s-2.65,1.59-4.83,1.39c-3.93-.32-9.08-2.46-14.08-6s-8.68-7.77-10.23-11.38c-.87-2-1.11-3.8-.23-5s2.65-1.59,4.87-1.43C47.87,22,53.06,24.08,58,27.65Z"/></clipPath><clipPath id="clip-path-2"><path id="SVGID-2" data-name="SVGID" class="cls-2" d="M.27,55.61c.44,0,1.15,1,1.55,1.31A48.8,48.8,0,0,0,6,59.84c4.16,2.54,8.49,3.95,12.77,3,6.74-1.51,12.84-13.26,19.62-11.66,3.81.84,6.5,6.2,9.83,9.87,3.18,3.67,6.67,5.27,10.19,4.51C68.94,63.51,72.9,42.82,83.57,44c8.84.94,5.39,11.56,13.88,15.32.08.1,20.49-17.86,20.65-21,.6-11.94-10.74-152.62-10.23-152.62L6.73-77.17Z"/></clipPath></defs><path class="cls-3" d="M86.83,57.22,70.44,80.07c-2.58,3.62-7.58,5.37-14.08,4.84C48,84.21,36.85,79.78,26.2,72.14S7.77,55.38,4.39,47.67c-2.58-6-2.54-11.26.07-14.89L20.81,9.93c2.62-3.62,7.62-5.37,14.08-4.84,8.39.7,19.55,5.13,30.2,12.78S83.52,34.62,86.87,42.33c2.61,6,2.53,11.26,0,14.89ZM25.2,13.07c1.69-2.34,5.08-3,9.27-2.6,7.65.63,17.73,4.8,27.47,11.77s16.92,15.2,20,22.24c1.66,3.86,2.19,7.26.5,9.61l2.19,1.56-2.19-1.56L66.05,76.93c-1.65,2.34-5,2.95-9.23,2.6-7.66-.62-17.77-4.8-27.51-11.77s-16.92-15.2-20-22.24c-1.69-3.86-2.2-7.26-.5-9.6Z"/><path class="cls-3" d="M23,12.06c5.35-7.46,23.47-3.63,40.47,8.55S90,48.74,84.63,56.21L68.28,79.05c-5.35,7.46-23.51,3.63-40.51-8.55S1.3,42.37,6.65,34.9Z"/><path class="cls-4" d="M21.86,10.68c2.38-3.33,7-4.8,12.92-4.32C43,7,53.85,11.43,64.32,18.88s18.08,16.42,21.33,24c2.38,5.47,2.46,10.31.08,13.64L69.4,79.31c-2.38,3.33-7,4.79-12.93,4.32-8.21-.72-19.11-5.08-29.54-12.57S8.86,54.68,5.56,47.15c-2.37-5.47-2.45-10.31-.07-13.64ZM83.47,54.84v0c1.9-2.61,1.51-6.5-.36-10.86C80,36.76,72.65,28.32,62.66,21.18s-20.3-11.37-28.11-12c-4.76-.4-8.53.48-10.43,3.13l-.08.16c-1.78,2.66-1.39,6.42.48,10.71C27.65,30.38,35,38.83,44.93,46S65.23,57.34,73,58c4.68.35,8.37-.48,10.31-3l.12-.2ZM58,27.65c5,3.56,8.68,7.81,10.23,11.41.91,2,1.15,3.81.23,5s-2.65,1.59-4.83,1.39c-3.93-.32-9.08-2.46-14.08-6s-8.68-7.77-10.23-11.38c-.87-2-1.11-3.8-.23-5s2.65-1.59,4.87-1.43C47.87,22,53.06,24.08,58,27.65Z"/><g class="cls-5"><g class="cls-6"><polygon class="cls-7" points="118.7 -10.1 0.27 13.42 0.27 -114.32 118.7 -114.32 118.7 -10.1"/><polygon class="cls-7" points="118.7 -9.91 0.27 13.61 0.27 13.42 118.7 -10.1 118.7 -9.91"/><polygon class="cls-8" points="118.7 -9.72 0.27 13.81 0.27 13.61 118.7 -9.91 118.7 -9.72"/><polygon class="cls-9" points="118.7 -9.52 0.27 14 0.27 13.81 118.7 -9.72 118.7 -9.52"/><polygon class="cls-10" points="118.7 -9.33 0.27 14.2 0.27 14 118.7 -9.52 118.7 -9.33"/><polygon class="cls-11" points="118.7 -9.13 0.27 14.39 0.27 14.2 118.7 -9.33 118.7 -9.13"/><polygon class="cls-12" points="118.7 -8.94 0.27 14.58 0.27 14.39 118.7 -9.13 118.7 -8.94"/><polygon class="cls-13" points="118.7 -8.74 0.27 14.78 0.27 14.58 118.7 -8.94 118.7 -8.74"/><polygon class="cls-14" points="118.7 -8.55 0.27 14.97 0.27 14.78 118.7 -8.74 118.7 -8.55"/><polygon class="cls-15" points="118.7 -8.36 0.27 15.17 0.27 14.97 118.7 -8.55 118.7 -8.36"/><polygon class="cls-16" points="118.7 -8.16 0.27 15.36 0.27 15.17 118.7 -8.36 118.7 -8.16"/><polygon class="cls-17" points="118.7 -7.97 0.27 15.56 0.27 15.36 118.7 -8.16 118.7 -7.97"/><polygon class="cls-18" points="118.7 -7.77 0.27 15.75 0.27 15.56 118.7 -7.97 118.7 -7.77"/><polygon class="cls-19" points="118.7 -7.58 0.27 15.94 0.27 15.75 118.7 -7.77 118.7 -7.58"/><polygon class="cls-20" points="118.7 -7.38 0.27 16.14 0.27 15.94 118.7 -7.58 118.7 -7.38"/><polygon class="cls-21" points="118.7 -7.19 0.27 16.33 0.27 16.14 118.7 -7.38 118.7 -7.19"/><polygon class="cls-22" points="118.7 -7 0.27 16.53 0.27 16.33 118.7 -7.19 118.7 -7"/><polygon class="cls-23" points="118.7 -6.8 0.27 16.72 0.27 16.53 118.7 -7 118.7 -6.8"/><polygon class="cls-24" points="118.7 -6.61 0.27 16.91 0.27 16.72 118.7 -6.8 118.7 -6.61"/><polygon class="cls-25" points="118.7 -6.41 0.27 17.11 0.27 16.91 118.7 -6.61 118.7 -6.41"/><polygon class="cls-26" points="118.7 -6.22 0.27 17.3 0.27 17.11 118.7 -6.41 118.7 -6.22"/><polygon class="cls-27" points="118.7 -6.03 0.27 17.5 0.27 17.3 118.7 -6.22 118.7 -6.03"/><polygon class="cls-28" points="118.7 -5.83 0.27 17.69 0.27 17.5 118.7 -6.03 118.7 -5.83"/><polygon class="cls-29" points="118.7 -5.64 0.27 17.89 0.27 17.69 118.7 -5.83 118.7 -5.64"/><polygon class="cls-30" points="118.7 -5.44 0.27 18.08 0.27 17.89 118.7 -5.64 118.7 -5.44"/><polygon class="cls-31" points="118.7 -5.25 0.27 18.27 0.27 18.08 118.7 -5.44 118.7 -5.25"/><polygon class="cls-32" points="118.7 -5.05 0.27 18.47 0.27 18.27 118.7 -5.25 118.7 -5.05"/><polygon class="cls-33" points="118.7 -4.86 0.27 18.66 0.27 18.47 118.7 -5.05 118.7 -4.86"/><polygon class="cls-34" points="118.7 -4.67 0.27 18.86 0.27 18.66 118.7 -4.86 118.7 -4.67"/><polygon class="cls-35" points="118.7 -4.47 0.27 19.05 0.27 18.86 118.7 -4.67 118.7 -4.47"/><polygon class="cls-36" points="118.7 -4.28 0.27 19.25 0.27 19.05 118.7 -4.47 118.7 -4.28"/><polygon class="cls-37" points="118.7 -4.08 0.27 19.44 0.27 19.25 118.7 -4.28 118.7 -4.08"/><polygon class="cls-38" points="118.7 -3.89 0.27 19.64 0.27 19.44 118.7 -4.08 118.7 -3.89"/><polygon class="cls-39" points="118.7 -3.69 0.27 19.83 0.27 19.64 118.7 -3.89 118.7 -3.69"/><polygon class="cls-40" points="118.7 -3.5 0.27 20.02 0.27 19.83 118.7 -3.69 118.7 -3.5"/><polygon class="cls-41" points="118.7 -3.31 0.27 20.22 0.27 20.02 118.7 -3.5 118.7 -3.31"/><polygon class="cls-42" points="118.7 -3.11 0.27 20.41 0.27 20.22 118.7 -3.31 118.7 -3.11"/><polygon class="cls-43" points="118.7 -2.92 0.27 20.61 0.27 20.41 118.7 -3.11 118.7 -2.92"/><polygon class="cls-44" points="118.7 -2.72 0.27 20.8 0.27 20.61 118.7 -2.92 118.7 -2.72"/><polygon class="cls-45" points="118.7 -2.53 0.27 21 0.27 20.8 118.7 -2.72 118.7 -2.53"/><polygon class="cls-46" points="118.7 -2.33 0.27 21.19 0.27 21 118.7 -2.53 118.7 -2.33"/><polygon class="cls-47" points="118.7 -2.14 0.27 21.38 0.27 21.19 118.7 -2.33 118.7 -2.14"/><polygon class="cls-48" points="118.7 -1.95 0.27 21.58 0.27 21.38 118.7 -2.14 118.7 -1.95"/><polygon class="cls-49" points="118.7 -1.75 0.27 21.77 0.27 21.58 118.7 -1.95 118.7 -1.75"/><polygon class="cls-50" points="118.7 -1.56 0.27 21.97 0.27 21.77 118.7 -1.75 118.7 -1.56"/><polygon class="cls-51" points="118.7 -1.36 0.27 22.16 0.27 21.97 118.7 -1.56 118.7 -1.36"/><polygon class="cls-52" points="118.7 -1.17 0.27 22.35 0.27 22.16 118.7 -1.36 118.7 -1.17"/><polygon class="cls-53" points="118.7 -0.97 0.27 22.55 0.27 22.35 118.7 -1.17 118.7 -0.97"/><polygon class="cls-54" points="118.7 -0.78 0.27 22.74 0.27 22.55 118.7 -0.97 118.7 -0.78"/><polygon class="cls-55" points="118.7 -0.59 0.27 22.94 0.27 22.74 118.7 -0.78 118.7 -0.59"/><polygon class="cls-56" points="118.7 -0.39 0.27 23.13 0.27 22.94 118.7 -0.59 118.7 -0.39"/><polygon class="cls-57" points="118.7 -0.2 0.27 23.33 0.27 23.13 118.7 -0.39 118.7 -0.2"/><polygon class="cls-58" points="118.7 0 0.27 23.52 0.27 23.33 118.7 -0.2 118.7 0"/><polygon class="cls-59" points="118.7 0.19 0.27 23.71 0.27 23.52 118.7 0 118.7 0.19"/><polygon class="cls-60" points="118.7 0.39 0.27 23.91 0.27 23.71 118.7 0.19 118.7 0.39"/><polygon class="cls-61" points="118.7 0.58 0.27 24.1 0.27 23.91 118.7 0.39 118.7 0.58"/><polygon class="cls-62" points="118.7 0.77 0.27 24.3 0.27 24.1 118.7 0.58 118.7 0.77"/><polygon class="cls-63" points="118.7 0.97 0.27 24.49 0.27 24.3 118.7 0.77 118.7 0.97"/><polygon class="cls-64" points="118.7 1.16 0.27 24.68 0.27 24.49 118.7 0.97 118.7 1.16"/><polygon class="cls-65" points="118.7 1.36 0.27 24.88 0.27 24.68 118.7 1.16 118.7 1.36"/><polygon class="cls-66" points="118.7 1.55 0.27 25.07 0.27 24.88 118.7 1.36 118.7 1.55"/><polygon class="cls-67" points="118.7 1.75 0.27 25.27 0.27 25.07 118.7 1.55 118.7 1.75"/><polygon class="cls-68" points="118.7 1.94 0.27 25.46 0.27 25.27 118.7 1.75 118.7 1.94"/><polygon class="cls-69" points="118.7 2.13 0.27 25.66 0.27 25.46 118.7 1.94 118.7 2.13"/><polygon class="cls-70" points="118.7 2.33 0.27 25.85 0.27 25.66 118.7 2.13 118.7 2.33"/><polygon class="cls-71" points="118.7 2.52 0.27 26.05 0.27 25.85 118.7 2.33 118.7 2.52"/><polygon class="cls-72" points="118.7 2.72 0.27 26.24 0.27 26.05 118.7 2.52 118.7 2.72"/><polygon class="cls-73" points="118.7 2.91 0.27 26.43 0.27 26.24 118.7 2.72 118.7 2.91"/><polygon class="cls-74" points="118.7 3.1 0.27 26.63 0.27 26.43 118.7 2.91 118.7 3.1"/><polygon class="cls-75" points="118.7 3.3 0.27 26.82 0.27 26.63 118.7 3.1 118.7 3.3"/><polygon class="cls-76" points="118.7 3.49 0.27 27.02 0.27 26.82 118.7 3.3 118.7 3.49"/><polygon class="cls-77" points="118.7 3.69 0.27 27.21 0.27 27.02 118.7 3.49 118.7 3.69"/><polygon class="cls-78" points="118.7 3.88 0.27 27.41 0.27 27.21 118.7 3.69 118.7 3.88"/><polygon class="cls-79" points="118.7 4.08 0.27 27.6 0.27 27.41 118.7 3.88 118.7 4.08"/><polygon class="cls-80" points="118.7 4.27 0.27 27.79 0.27 27.6 118.7 4.08 118.7 4.27"/><polygon class="cls-81" points="118.7 4.46 0.27 27.99 0.27 27.79 118.7 4.27 118.7 4.46"/><polygon class="cls-82" points="118.7 4.66 0.27 28.18 0.27 27.99 118.7 4.46 118.7 4.66"/><polygon class="cls-83" points="118.7 4.85 0.27 28.38 0.27 28.18 118.7 4.66 118.7 4.85"/><polygon class="cls-84" points="118.7 5.05 0.27 28.57 0.27 28.38 118.7 4.85 118.7 5.05"/><polygon class="cls-85" points="118.7 5.24 0.27 28.77 0.27 28.57 118.7 5.05 118.7 5.24"/><polygon class="cls-86" points="118.7 5.44 0.27 28.96 0.27 28.77 118.7 5.24 118.7 5.44"/><polygon class="cls-87" points="118.7 5.63 0.27 29.15 0.27 28.96 118.7 5.44 118.7 5.63"/><polygon class="cls-88" points="118.7 5.82 0.27 29.35 0.27 29.15 118.7 5.63 118.7 5.82"/><polygon class="cls-89" points="118.7 6.02 0.27 29.54 0.27 29.35 118.7 5.82 118.7 6.02"/><polygon class="cls-90" points="118.7 6.21 0.27 29.74 0.27 29.54 118.7 6.02 118.7 6.21"/><polygon class="cls-91" points="118.7 6.41 0.27 29.93 0.27 29.74 118.7 6.21 118.7 6.41"/><polygon class="cls-92" points="118.7 6.6 0.27 30.12 0.27 29.93 118.7 6.41 118.7 6.6"/><polygon class="cls-93" points="118.7 6.79 0.27 30.32 0.27 30.12 118.7 6.6 118.7 6.79"/><polygon class="cls-94" points="118.7 6.99 0.27 30.51 0.27 30.32 118.7 6.79 118.7 6.99"/><polygon class="cls-95" points="118.7 7.18 0.27 30.71 0.27 30.51 118.7 6.99 118.7 7.18"/><polygon class="cls-96" points="118.7 7.38 0.27 30.9 0.27 30.71 118.7 7.18 118.7 7.38"/><polygon class="cls-97" points="118.7 7.57 0.27 31.1 0.27 30.9 118.7 7.38 118.7 7.57"/><polygon class="cls-98" points="118.7 7.77 0.27 31.29 0.27 31.1 118.7 7.57 118.7 7.77"/><polygon class="cls-99" points="118.7 7.96 0.27 31.48 0.27 31.29 118.7 7.77 118.7 7.96"/><polygon class="cls-100" points="118.7 8.15 0.27 31.68 0.27 31.48 118.7 7.96 118.7 8.15"/><polygon class="cls-101" points="118.7 8.35 0.27 31.87 0.27 31.68 118.7 8.15 118.7 8.35"/><polygon class="cls-102" points="118.7 8.54 0.27 32.07 0.27 31.87 118.7 8.35 118.7 8.54"/><polygon class="cls-103" points="118.7 8.74 0.27 32.26 0.27 32.07 118.7 8.54 118.7 8.74"/><polygon class="cls-104" points="118.7 8.93 0.27 32.45 0.27 32.26 118.7 8.74 118.7 8.93"/><polygon class="cls-105" points="118.7 9.13 0.27 32.65 0.27 32.45 118.7 8.93 118.7 9.13"/><polygon class="cls-106" points="118.7 9.32 0.27 32.84 0.27 32.65 118.7 9.13 118.7 9.32"/><polygon class="cls-107" points="118.7 9.52 0.27 33.04 0.27 32.84 118.7 9.32 118.7 9.52"/><polygon class="cls-108" points="118.7 9.71 0.27 33.23 0.27 33.04 118.7 9.52 118.7 9.71"/><polygon class="cls-109" points="118.7 9.9 0.27 33.43 0.27 33.23 118.7 9.71 118.7 9.9"/><polygon class="cls-110" points="118.7 10.1 0.27 33.62 0.27 33.43 118.7 9.9 118.7 10.1"/><polygon class="cls-111" points="118.7 10.29 0.27 33.81 0.27 33.62 118.7 10.1 118.7 10.29"/><polygon class="cls-112" points="118.7 10.49 0.27 34.01 0.27 33.81 118.7 10.29 118.7 10.49"/><polygon class="cls-113" points="118.7 10.68 0.27 34.2 0.27 34.01 118.7 10.49 118.7 10.68"/><polygon class="cls-114" points="118.7 10.88 0.27 34.4 0.27 34.2 118.7 10.68 118.7 10.88"/><polygon class="cls-115" points="118.7 11.07 0.27 34.59 0.27 34.4 118.7 10.88 118.7 11.07"/><polygon class="cls-116" points="118.7 11.26 0.27 34.79 0.27 34.59 118.7 11.07 118.7 11.26"/><polygon class="cls-117" points="118.7 11.46 0.27 34.98 0.27 34.79 118.7 11.26 118.7 11.46"/><polygon class="cls-118" points="118.7 11.65 0.27 35.17 0.27 34.98 118.7 11.46 118.7 11.65"/><polygon class="cls-119" points="118.7 11.85 0.27 35.37 0.27 35.17 118.7 11.65 118.7 11.85"/><polygon class="cls-120" points="118.7 12.04 0.27 35.56 0.27 35.37 118.7 11.85 118.7 12.04"/><polygon class="cls-121" points="118.7 12.23 0.27 35.76 0.27 35.56 118.7 12.04 118.7 12.23"/><polygon class="cls-122" points="118.7 12.43 0.27 35.95 0.27 35.76 118.7 12.23 118.7 12.43"/><polygon class="cls-123" points="118.7 12.62 0.27 36.15 0.27 35.95 118.7 12.43 118.7 12.62"/><polygon class="cls-124" points="118.7 12.82 0.27 36.34 0.27 36.15 118.7 12.62 118.7 12.82"/><polygon class="cls-125" points="118.7 13.01 0.27 36.53 0.27 36.34 118.7 12.82 118.7 13.01"/><polygon class="cls-126" points="118.7 13.21 0.27 36.73 0.27 36.53 118.7 13.01 118.7 13.21"/><polygon class="cls-127" points="118.7 13.4 0.27 36.92 0.27 36.73 118.7 13.21 118.7 13.4"/><polygon class="cls-128" points="118.7 13.59 0.27 37.12 0.27 36.92 118.7 13.4 118.7 13.59"/><polygon class="cls-129" points="118.7 13.79 0.27 37.31 0.27 37.12 118.7 13.59 118.7 13.79"/><polygon class="cls-130" points="118.7 13.98 0.27 37.51 0.27 37.31 118.7 13.79 118.7 13.98"/><polygon class="cls-131" points="118.7 14.18 0.27 37.7 0.27 37.51 118.7 13.98 118.7 14.18"/><polygon class="cls-132" points="118.7 14.37 0.27 37.89 0.27 37.7 118.7 14.18 118.7 14.37"/><polygon class="cls-133" points="118.7 14.56 0.27 38.09 0.27 37.89 118.7 14.37 118.7 14.56"/><polygon class="cls-134" points="118.7 14.76 0.27 38.28 0.27 38.09 118.7 14.56 118.7 14.76"/><polygon class="cls-135" points="118.7 14.95 0.27 38.48 0.27 38.28 118.7 14.76 118.7 14.95"/><polygon class="cls-136" points="118.7 15.15 0.27 38.67 0.27 38.48 118.7 14.95 118.7 15.15"/><polygon class="cls-137" points="118.7 15.34 0.27 38.87 0.27 38.67 118.7 15.15 118.7 15.34"/><polygon class="cls-138" points="118.7 15.54 0.27 39.06 0.27 38.87 118.7 15.34 118.7 15.54"/><polygon class="cls-139" points="118.7 15.73 0.27 39.25 0.27 39.06 118.7 15.54 118.7 15.73"/><polygon class="cls-140" points="118.7 15.93 0.27 39.45 0.27 39.25 118.7 15.73 118.7 15.93"/><polygon class="cls-141" points="118.7 16.12 0.27 39.64 0.27 39.45 118.7 15.93 118.7 16.12"/><polygon class="cls-142" points="118.7 16.31 0.27 39.84 0.27 39.64 118.7 16.12 118.7 16.31"/><polygon class="cls-143" points="118.7 16.51 0.27 40.03 0.27 39.84 118.7 16.31 118.7 16.51"/><polygon class="cls-144" points="118.7 16.7 0.27 40.23 0.27 40.03 118.7 16.51 118.7 16.7"/><polygon class="cls-145" points="118.7 16.9 0.27 40.42 0.27 40.23 118.7 16.7 118.7 16.9"/><polygon class="cls-146" points="118.7 17.09 0.27 40.61 0.27 40.42 118.7 16.9 118.7 17.09"/><polygon class="cls-147" points="118.7 17.29 0.27 40.81 0.27 40.61 118.7 17.09 118.7 17.29"/><polygon class="cls-148" points="118.7 17.48 0.27 41 0.27 40.81 118.7 17.29 118.7 17.48"/><polygon class="cls-149" points="118.7 17.67 0.27 41.2 0.27 41 118.7 17.48 118.7 17.67"/><polygon class="cls-150" points="118.7 17.87 0.27 41.39 0.27 41.2 118.7 17.67 118.7 17.87"/><polygon class="cls-151" points="118.7 18.06 0.27 41.59 0.27 41.39 118.7 17.87 118.7 18.06"/><polygon class="cls-152" points="118.7 18.26 0.27 41.78 0.27 41.59 118.7 18.06 118.7 18.26"/><polygon class="cls-153" points="118.7 18.45 0.27 41.97 0.27 41.78 118.7 18.26 118.7 18.45"/><polygon class="cls-154" points="118.7 18.64 0.27 42.17 0.27 41.97 118.7 18.45 118.7 18.64"/><polygon class="cls-155" points="118.7 18.84 0.27 42.36 0.27 42.17 118.7 18.64 118.7 18.84"/><polygon class="cls-156" points="118.7 19.03 0.27 42.56 0.27 42.36 118.7 18.84 118.7 19.03"/><polygon class="cls-157" points="118.7 19.23 0.27 42.75 0.27 42.56 118.7 19.03 118.7 19.23"/><polygon class="cls-158" points="118.7 19.42 0.27 42.95 0.27 42.75 118.7 19.23 118.7 19.42"/><polygon class="cls-159" points="118.7 19.62 0.27 43.14 0.27 42.95 118.7 19.42 118.7 19.62"/><polygon class="cls-160" points="118.7 19.81 0.27 43.33 0.27 43.14 118.7 19.62 118.7 19.81"/><polygon class="cls-161" points="118.7 20 0.27 43.53 0.27 43.33 118.7 19.81 118.7 20"/><polygon class="cls-161" points="118.7 20.5 0.27 44.02 0.27 43.53 118.7 20 118.7 20.5"/><polygon class="cls-162" points="118.7 21 0.27 44.52 0.27 44.02 118.7 20.5 118.7 21"/><polygon class="cls-163" points="118.7 21.49 0.27 45.02 0.27 44.52 118.7 21 118.7 21.49"/><polygon class="cls-164" points="118.7 21.99 0.27 45.51 0.27 45.02 118.7 21.49 118.7 21.99"/><polygon class="cls-165" points="118.7 22.49 0.27 46.01 0.27 45.51 118.7 21.99 118.7 22.49"/><polygon class="cls-166" points="118.7 22.98 0.27 46.51 0.27 46.01 118.7 22.49 118.7 22.98"/><polygon class="cls-167" points="118.7 23.48 0.27 47 0.27 46.51 118.7 22.98 118.7 23.48"/><polygon class="cls-168" points="118.7 23.98 0.27 47.5 0.27 47 118.7 23.48 118.7 23.98"/><polygon class="cls-169" points="118.7 24.47 0.27 47.99 0.27 47.5 118.7 23.98 118.7 24.47"/><polygon class="cls-170" points="118.7 24.97 0.27 48.49 0.27 47.99 118.7 24.47 118.7 24.97"/><polygon class="cls-171" points="118.7 25.46 0.27 48.99 0.27 48.49 118.7 24.97 118.7 25.46"/><polygon class="cls-172" points="118.7 25.96 0.27 49.48 0.27 48.99 118.7 25.46 118.7 25.96"/><polygon class="cls-173" points="118.7 26.46 0.27 49.98 0.27 49.48 118.7 25.96 118.7 26.46"/><polygon class="cls-174" points="118.7 26.95 0.27 50.48 0.27 49.98 118.7 26.46 118.7 26.95"/><polygon class="cls-175" points="118.7 27.45 0.27 50.97 0.27 50.48 118.7 26.95 118.7 27.45"/><polygon class="cls-176" points="118.7 27.95 0.27 51.47 0.27 50.97 118.7 27.45 118.7 27.95"/><polygon class="cls-177" points="118.7 28.44 0.27 51.96 0.27 51.47 118.7 27.95 118.7 28.44"/><polygon class="cls-178" points="118.7 28.94 0.27 52.46 0.27 51.96 118.7 28.44 118.7 28.94"/><polygon class="cls-179" points="118.7 29.43 0.27 52.96 0.27 52.46 118.7 28.94 118.7 29.43"/><polygon class="cls-180" points="118.7 29.93 0.27 53.45 0.27 52.96 118.7 29.43 118.7 29.93"/><polygon class="cls-181" points="118.7 30.43 0.27 53.95 0.27 53.45 118.7 29.93 118.7 30.43"/><polygon class="cls-182" points="118.7 30.92 0.27 54.45 0.27 53.95 118.7 30.43 118.7 30.92"/><polygon class="cls-183" points="118.7 31.42 0.27 54.94 0.27 54.45 118.7 30.92 118.7 31.42"/><polygon class="cls-184" points="118.7 31.91 0.27 55.44 0.27 54.94 118.7 31.42 118.7 31.91"/><polygon class="cls-185" points="118.7 32.41 0.27 55.94 0.27 55.44 118.7 31.91 118.7 32.41"/><polygon class="cls-186" points="118.7 32.91 0.27 56.43 0.27 55.94 118.7 32.41 118.7 32.91"/><polygon class="cls-187" points="118.7 33.4 0.27 56.93 0.27 56.43 118.7 32.91 118.7 33.4"/><polygon class="cls-188" points="118.7 33.9 0.27 57.42 0.27 56.93 118.7 33.4 118.7 33.9"/><polygon class="cls-189" points="118.7 34.4 0.27 57.92 0.27 57.42 118.7 33.9 118.7 34.4"/><polygon class="cls-190" points="118.7 34.89 0.27 58.42 0.27 57.92 118.7 34.4 118.7 34.89"/><polygon class="cls-191" points="118.7 35.39 0.27 58.91 0.27 58.42 118.7 34.89 118.7 35.39"/><polygon class="cls-192" points="118.7 35.89 0.27 59.41 0.27 58.91 118.7 35.39 118.7 35.89"/><polygon class="cls-193" points="118.7 36.38 0.27 59.91 0.27 59.41 118.7 35.89 118.7 36.38"/><polygon class="cls-194" points="118.7 36.88 0.27 60.4 0.27 59.91 118.7 36.38 118.7 36.88"/><polygon class="cls-195" points="118.7 37.38 0.27 60.9 0.27 60.4 118.7 36.88 118.7 37.38"/><polygon class="cls-196" points="118.7 37.87 0.27 61.39 0.27 60.9 118.7 37.38 118.7 37.87"/><polygon class="cls-197" points="118.7 38.37 0.27 61.89 0.27 61.39 118.7 37.87 118.7 38.37"/><polygon class="cls-198" points="118.7 38.86 0.27 62.39 0.27 61.89 118.7 38.37 118.7 38.86"/><polygon class="cls-199" points="118.7 39.36 0.27 62.88 0.27 62.39 118.7 38.86 118.7 39.36"/><polygon class="cls-200" points="118.7 39.86 0.27 63.38 0.27 62.88 118.7 39.36 118.7 39.86"/><polygon class="cls-201" points="118.7 40.35 0.27 63.88 0.27 63.38 118.7 39.86 118.7 40.35"/><polygon class="cls-202" points="118.7 40.85 0.27 64.37 0.27 63.88 118.7 40.35 118.7 40.85"/><polygon class="cls-203" points="118.7 41.34 0.27 64.87 0.27 64.37 118.7 40.85 118.7 41.34"/><polygon class="cls-204" points="118.7 41.84 0.27 65.36 0.27 64.87 118.7 41.34 118.7 41.84"/><polygon class="cls-205" points="118.7 42.34 0.27 65.86 0.27 65.36 118.7 41.84 118.7 42.34"/><polygon class="cls-206" points="118.7 42.83 0.42 66.33 0.27 66.33 0.27 65.86 118.7 42.34 118.7 42.83"/><polygon class="cls-207" points="118.7 43.33 2.92 66.33 0.42 66.33 118.7 42.83 118.7 43.33"/><polygon class="cls-208" points="118.7 43.83 5.42 66.33 2.92 66.33 118.7 43.33 118.7 43.83"/><polygon class="cls-209" points="118.7 44.32 7.92 66.33 5.42 66.33 118.7 43.83 118.7 44.32"/><polygon class="cls-210" points="118.7 44.82 10.42 66.33 7.92 66.33 118.7 44.32 118.7 44.82"/><polygon class="cls-211" points="118.7 45.31 12.92 66.33 10.42 66.33 118.7 44.82 118.7 45.31"/><polygon class="cls-212" points="118.7 45.81 15.42 66.33 12.92 66.33 118.7 45.31 118.7 45.81"/><polygon class="cls-213" points="118.7 46.31 17.91 66.33 15.42 66.33 118.7 45.81 118.7 46.31"/><polygon class="cls-214" points="118.7 46.8 20.41 66.33 17.91 66.33 118.7 46.31 118.7 46.8"/><polygon class="cls-215" points="118.7 47.3 22.91 66.33 20.41 66.33 118.7 46.8 118.7 47.3"/><polygon class="cls-216" points="118.7 47.8 25.41 66.33 22.91 66.33 118.7 47.3 118.7 47.8"/><polygon class="cls-216" points="25.41 66.33 118.7 47.8 118.7 66.33 25.41 66.33"/></g></g><path class="cls-217" d="M74.32,61.57a30.75,30.75,0,0,1-5.19-.47.59.59,0,0,1-.49-.68.6.6,0,0,1,.68-.49,25.21,25.21,0,0,0,7.94.24.58.58,0,0,1,.68.49.6.6,0,0,1-.49.68A20.36,20.36,0,0,1,74.32,61.57Zm-7.43-.92h-.13c-.76-.17-1.55-.37-2.33-.58a.6.6,0,0,1,.31-1.15c.77.21,1.54.4,2.28.57a.6.6,0,0,1,.45.71A.59.59,0,0,1,66.89,60.65ZM38.48,46.28a.57.57,0,0,1-.38-.15c-6.62-5.68-15.68-14.3-18-23.62a.6.6,0,0,1,1.16-.28c2.19,9,11.07,17.43,17.56,23a.59.59,0,0,1,.06.84A.57.57,0,0,1,38.48,46.28ZM20.31,20.62a.59.59,0,0,1-.59-.52q-.07-.62-.09-1.23a.59.59,0,1,1,1.18-.05q0,.57.09,1.14a.6.6,0,0,1-.52.66Z"/><path d="M123.62,62.82c-7.45,0-13.26-3.69-13.51-10.7h9a4,4,0,0,0,4.29,4c2.47,0,4-1.23,4-3.26,0-6.41-17.31-3-17.21-15.23,0-6.56,5.37-10.21,12.62-10.21,7.55,0,12.62,3.75,13,10.36h-9.12a3.75,3.75,0,0,0-4-3.6c-2-.05-3.55,1-3.55,3.15,0,6,17.11,3.31,17.11,14.89C136.24,58,131.71,62.82,123.62,62.82Z"/><path d="M168.59,62.48h-8.43V58.73a10,10,0,0,1-8.33,4.05c-6.36,0-10.65-4.39-10.65-11.74V35h8.38V49.91c0,3.74,2.12,5.81,5.28,5.81s5.32-2.07,5.32-5.81V35h8.43Z"/><path d="M185.85,62.87c-7.34,0-12.27-4.09-12.67-9.41h8.33c.2,1.92,1.93,3.2,4.25,3.2,2.16,0,3.3-1,3.3-2.22,0-4.44-15-1.23-15-11.34,0-4.68,4-8.53,11.19-8.53s11.05,3.94,11.59,9.37h-7.79c-.25-1.88-1.68-3.11-4-3.11-2,0-3.06.79-3.06,2.12,0,4.39,14.89,1.28,15,11.54C197,59.27,192.76,62.87,185.85,62.87Z"/><path d="M202.18,26h8.43V38.66a10.16,10.16,0,0,1,8.48-4c6.26,0,10.46,4.34,10.46,11.73V62.48h-8.39V47.54c0-3.75-2.07-5.82-5.27-5.82s-5.28,2.07-5.28,5.82V62.48h-8.43Z"/><path d="M234.63,27.57c0-2.57,2-4.59,5-4.59a4.65,4.65,0,0,1,5,4.59c0,2.51-2,4.53-5,4.53S234.63,30.08,234.63,27.57Zm.78,7.39h8.44V62.48h-8.44Z"/><path d="M262.49,62.82c-7.45,0-13.27-3.69-13.51-10.7h9a4,4,0,0,0,4.29,4c2.47,0,4-1.23,4-3.26,0-6.41-17.3-3-17.2-15.23,0-6.56,5.37-10.21,12.62-10.21,7.54,0,12.62,3.75,13,10.36h-9.12a3.75,3.75,0,0,0-4-3.6c-2-.05-3.55,1-3.55,3.15,0,6,17.11,3.31,17.11,14.89C275.11,58,270.58,62.82,262.49,62.82Z"/><path d="M277.43,35h8.43l3.9,19.68L294.39,35h8.93L308,54.54,311.85,35h7.94l-7.45,27.52H303l-4.34-17.85L294.2,62.48h-9.27Z"/><path d="M333.45,34.57c4.09,0,7,1.87,8.48,4.29V35h8.43V62.48h-8.43v-3.9a9.72,9.72,0,0,1-8.53,4.29c-6.7,0-12.08-5.52-12.08-14.2S326.7,34.57,333.45,34.57Zm2.47,7.35c-3.16,0-6,2.36-6,6.75s2.86,6.86,6,6.86,6-2.42,6-6.81S339.12,41.92,335.92,41.92Z"/><path d="M373.39,34.57c6.76,0,12.13,5.42,12.13,14.1s-5.37,14.2-12.13,14.2a9.89,9.89,0,0,1-8.48-4.24v17h-8.43V35h8.43v3.9A9.7,9.7,0,0,1,373.39,34.57Zm-2.51,7.35c-3.16,0-6,2.41-6,6.8s2.86,6.81,6,6.81,6.06-2.47,6.06-6.86S374.08,41.92,370.88,41.92Z"/></svg>