<svg id="Layer_1" data-name="Layer 1" xmlns="http://www.w3.org/2000/svg" viewBox="0 0 458 90"><defs><style>.cls-1{fill:#131416;}</style></defs><path class="cls-1" d="M69.37,53a4.11,4.11,0,0,1-4.15.31c-1.52-.91-2.42-3-2.42-5.75V39c0-4.08-1.59-7-4.31-7.78-4.61-1.36-8.09,4.3-9.37,6.42L41,50.71V34.61c-.07-3.71-1.28-5.9-3.55-6.58-1.51-.45-3.78-.22-6,3.1L13.22,60.31a32.24,32.24,0,0,1-3.71-15A31.71,31.71,0,0,1,41,13.45,31.71,31.71,0,0,1,72.4,45.34v.15c.15,3.4-.91,6.12-3,7.48Zm10-7.63h0v-.15C79.27,23.8,62,6.34,41,6.34S2.56,23.8,2.56,45.34s17.23,39,38.39,39A37.73,37.73,0,0,0,67,73.91a3.53,3.53,0,0,0-4.76-5.21l-.08.07a31.06,31.06,0,0,1-44.74-2l16.4-26.3V52.6c0,5.82,2.27,7.71,4.16,8.23s4.76.16,7.86-4.76l9-14.58a7.91,7.91,0,0,1,.83-1.21v7.4c0,5.45,2.19,9.83,6,12a11,11,0,0,0,11.26-.46C77.31,56.3,79.65,51.31,79.35,45.34ZM132.86,32a3.78,3.78,0,0,1,1.74,3,3.34,3.34,0,0,1-3.25,3.32,5.53,5.53,0,0,1-1.21-.23,12.42,12.42,0,0,0-7.33-2.49c-6.43,0-10.81,5.22-10.81,11.72S116.46,59,122.81,59A11.75,11.75,0,0,0,131,55.62a3.3,3.3,0,0,1,1.89-.61,3.07,3.07,0,0,1,3.1,3.1,3.22,3.22,0,0,1-1.51,2.65,18.15,18.15,0,0,1-11.57,4.38,18.07,18.07,0,0,1,0-36.13A17.09,17.09,0,0,1,132.86,32Zm18,7.56a12.54,12.54,0,0,1,12.32,12.69c0,7-5.67,12.93-12.32,12.93A13,13,0,0,1,138,52.29,12.8,12.8,0,0,1,150.85,39.6ZM150.77,59c2.95,0,5.45-2.8,5.45-6.58s-2.5-6.2-5.45-6.2c-3.17,0-5.82,2.34-5.82,6.2C145,56.07,147.6,59,150.77,59Zm16.63,2.34V43.45a3.49,3.49,0,0,1,3.48-3.55,3.53,3.53,0,0,1,3.47,3.55V61.29a3.53,3.53,0,0,1-3.47,3.55A3.58,3.58,0,0,1,167.4,61.29Zm-.53-28.12a4.08,4.08,0,0,1,4-4.16A4.13,4.13,0,0,1,175,33.17a4,4,0,1,1-8.09,0Zm20.79,18.44v9.68a3.48,3.48,0,1,1-7,0V42.62a2.69,2.69,0,1,1,5.37,0,10.06,10.06,0,0,1,7.63-3c7,0,10.06,5.21,10.06,11.18V61.29a3.48,3.48,0,1,1-7,0V51.61c0-3-.38-5.59-4.76-5.59-3.1,0-4.38,2.57-4.38,5.59Zm38.62,3.71a2.24,2.24,0,0,1-1.81-.91l-8.09-8.77V61.29a3.48,3.48,0,1,1-7,0v-31a1.48,1.48,0,0,1,1.29-.91,2.44,2.44,0,0,1,1.51.91l12.93,14.51a1.68,1.68,0,0,0,1.13.68,1.84,1.84,0,0,0,1.13-.68L240.34,30.3a2.25,2.25,0,0,1,1.51-.91,1.32,1.32,0,0,1,1.28.91v31a3.48,3.48,0,0,1-3.47,3.55,3.54,3.54,0,0,1-3.48-3.55V45.64l-8.09,8.77a2.77,2.77,0,0,1-1.81.91ZM259.69,59c3.1,0,5.74-2.8,5.74-6.58s-2.72-6.27-5.74-6.27-5.52,2.57-5.52,6.27S256.59,59,259.69,59Zm7.4,3.17-.15-.83c-1.36,2.64-5.67,3.85-8.39,3.85-6.5,0-11.33-5.89-11.33-12.92s4.91-12.7,11.71-12.7A10.88,10.88,0,0,1,267,43.38l.15-.84a2.64,2.64,0,0,1,2.64-2.72,2.76,2.76,0,0,1,2.73,2.72V62a2.71,2.71,0,0,1-2.73,2.72,2.6,2.6,0,0,1-2.72-2.64ZM291.66,46h-.76c-4.38.23-5.21,2.72-5.21,5.59v9.68a3.48,3.48,0,1,1-7,0V42.62a2.69,2.69,0,1,1,5.37,0,9.61,9.61,0,0,1,6.8-3h.68a3.26,3.26,0,0,1,3.18,3.25,3.18,3.18,0,0,1-3.1,3.17Zm26.83,13.61a3.29,3.29,0,0,1,.53,1.66,3.62,3.62,0,0,1-3.48,3.47,4.28,4.28,0,0,1-3.1-2l-8-9.3v7.71a3.48,3.48,0,1,1-6.95,0V32.87a3.48,3.48,0,1,1,6.95,0V50.56l8-8.85c.83-.9,1.82-1.89,3-1.89a3.48,3.48,0,0,1,3.32,3.4,3,3,0,0,1-.45,1.59L312,51.76l6.5,7.87Zm13.6-13.53c-1.89,0-5,1-5,3.93h10.06c-.08-3-3.25-3.93-5.07-3.93Zm9.07,8.39H327.1c0,4.15,4,4.83,5.75,4.83a11.25,11.25,0,0,0,4.53-.9,3.39,3.39,0,0,1,1.82-.53A2.85,2.85,0,0,1,342,60.76a3.06,3.06,0,0,1-1.51,2.49c-2.11,1.59-4.91,2-7.56,2-7,0-12.84-3.78-12.84-12.62,0-7,3.55-13,11.86-13,6.73,0,11.79,4.38,11.94,12.16a2.76,2.76,0,0,1-2.72,2.73Zm19.35,10.65h-1.89c-5.29,0-8.39-2.34-8.39-10.58V46h-1.81a3.21,3.21,0,0,1,0-6.42h1.81V33a3.49,3.49,0,0,1,3.48-3.55A3.54,3.54,0,0,1,357.19,33V39.6h2.87a3.2,3.2,0,0,1,3.1,3.25,3.28,3.28,0,0,1-3.1,3.17h-2.87V53.2c0,4.76.22,5.75,2.34,5.75h1a3.11,3.11,0,0,1,3.1,3.09,3.16,3.16,0,0,1-3.1,3.1ZM394.15,32a3.8,3.8,0,0,1,1.73,3,3.34,3.34,0,0,1-3.25,3.32,5.53,5.53,0,0,1-1.21-.23,12.42,12.42,0,0,0-7.33-2.49c-6.42,0-10.8,5.22-10.8,11.72S377.74,59,384.09,59a11.76,11.76,0,0,0,8.17-3.33,3.3,3.3,0,0,1,1.89-.61,3.07,3.07,0,0,1,3.09,3.1,3.22,3.22,0,0,1-1.51,2.65A17.94,17.94,0,1,1,384.17,29a16.94,16.94,0,0,1,10,3ZM411.76,59c3.09,0,5.74-2.8,5.74-6.58s-2.72-6.27-5.74-6.27-5.52,2.57-5.52,6.27S408.73,59,411.76,59Zm7.4,3.17-.15-.83c-1.36,2.64-5.67,3.85-8.39,3.85-6.5,0-11.33-5.89-11.33-12.92s4.91-12.7,11.71-12.7a10.88,10.88,0,0,1,8.09,3.86l.15-.84a2.64,2.64,0,0,1,2.64-2.72,2.76,2.76,0,0,1,2.72,2.72V62a2.7,2.7,0,0,1-2.72,2.72A2.6,2.6,0,0,1,419.16,62.12ZM443.58,59c3.09,0,5.51-3,5.51-6.58s-2.49-6.27-5.51-6.27-5.75,2.49-5.75,6.27S440.48,59,443.58,59Zm-5.75,4.15V72a3.48,3.48,0,1,1-6.95,0V42.62a2.71,2.71,0,0,1,2.72-2.72,2.77,2.77,0,0,1,2.64,3,11.21,11.21,0,0,1,8.17-3.32c6.72,0,11.71,5.66,11.71,12.69s-4.76,12.93-11.33,12.93a13.34,13.34,0,0,1-7-2.12Z"/></svg>