<svg id="Layer_1" data-name="Layer 1" xmlns="http://www.w3.org/2000/svg" xmlns:xlink="http://www.w3.org/1999/xlink" viewBox="0 0 375 90"><defs><style>.cls-1{fill:url(#linear-gradient);}.cls-2{fill:url(#linear-gradient-2);}.cls-3{fill:url(#linear-gradient-3);}.cls-4{fill:url(#linear-gradient-4);}.cls-5{fill:url(#linear-gradient-5);}.cls-6{fill:url(#linear-gradient-6);}.cls-7{fill:url(#linear-gradient-7);}.cls-8{fill:url(#Degradado_sin_nombre_359);}.cls-9{fill:url(#Degradado_sin_nombre_359-2);}.cls-10{fill:url(#linear-gradient-8);}.cls-11{fill:#181d2b;}</style><linearGradient id="linear-gradient" x1="81.15" y1="-60.42" x2="77.72" y2="-91.31" gradientTransform="translate(22.87 144.03) rotate(-45)" gradientUnits="userSpaceOnUse"><stop offset="0" stop-color="#8a8dc5"/><stop offset="1" stop-color="#a89bcb"/></linearGradient><linearGradient id="linear-gradient-2" x1="53.24" y1="-82.55" x2="100.26" y2="-90.16" gradientTransform="translate(22.87 144.03) rotate(-45)" gradientUnits="userSpaceOnUse"><stop offset="0" stop-color="#fff" stop-opacity="0"/><stop offset="0.5" stop-color="#fff"/><stop offset="1" stop-color="#fff" stop-opacity="0"/></linearGradient><linearGradient id="linear-gradient-3" x1="104.18" y1="-13.8" x2="88.11" y2="-53.05" gradientTransform="translate(22.87 144.03) rotate(-45)" gradientUnits="userSpaceOnUse"><stop offset="0" stop-color="#79cfe6"/><stop offset="0.48" stop-color="#79cfe6"/><stop offset="1" stop-color="#697aba"/></linearGradient><linearGradient id="linear-gradient-4" x1="48.51" y1="-33.11" x2="68.47" y2="-69.98" gradientTransform="translate(22.87 144.03) rotate(-45)" gradientUnits="userSpaceOnUse"><stop offset="0" stop-color="#8a8dc5"/><stop offset="1" stop-color="#8a8dc5" stop-opacity="0"/></linearGradient><linearGradient id="linear-gradient-5" x1="104.32" y1="-46.45" x2="90.44" y2="-73.48" xlink:href="#linear-gradient-4"/><linearGradient id="linear-gradient-6" x1="67.09" y1="-67.97" x2="67.57" y2="-22" gradientTransform="translate(22.87 144.03) rotate(-45)" gradientUnits="userSpaceOnUse"><stop offset="0" stop-color="#697aba"/><stop offset="1" stop-color="#697aba" stop-opacity="0"/></linearGradient><linearGradient id="linear-gradient-7" x1="116.1" y1="-79.58" x2="119.44" y2="-44.81" xlink:href="#linear-gradient-6"/><linearGradient id="Degradado_sin_nombre_359" x1="74.2" y1="46.78" x2="29.63" y2="18.04" gradientUnits="userSpaceOnUse"><stop offset="0" stop-color="#fff" stop-opacity="0"/><stop offset="0.49" stop-color="#fff"/><stop offset="1" stop-color="#fff" stop-opacity="0"/></linearGradient><linearGradient id="Degradado_sin_nombre_359-2" x1="11.96" y1="44.45" x2="58.16" y2="74.24" xlink:href="#Degradado_sin_nombre_359"/><linearGradient id="linear-gradient-8" x1="72.81" y1="-18.49" x2="118.75" y2="-38.93" gradientTransform="translate(22.87 144.03) rotate(-45)" gradientUnits="userSpaceOnUse"><stop offset="0" stop-color="#697aba" stop-opacity="0"/><stop offset="0.49" stop-color="#697aba"/><stop offset="1" stop-color="#697aba" stop-opacity="0"/></linearGradient></defs><path class="cls-1" d="M26.62,73.32C14,60.7,12.64,41.34,23,28.77A26,26,0,1,1,62.77,62.24C75,49.43,74.29,28.7,61.13,15.55A34.93,34.93,0,0,0,38.23,5.26,40,40,0,1,0,52.8,83.81,35.19,35.19,0,0,1,26.62,73.32Z"/><path class="cls-2" d="M16.31,17.05A41.77,41.77,0,0,1,39.19,5.32c-.32,0-.64-.05-1-.06A40,40,0,0,0,5.47,57.69,41.93,41.93,0,0,1,16.31,17.05Z"/><path class="cls-3" d="M38.23,5.26a34.93,34.93,0,0,1,22.9,10.29C74.29,28.7,75,49.43,62.77,62.24c-.32.36-.65.72-1,1.06A26,26,0,0,1,23,28.77C12.64,41.34,14,60.7,26.62,73.32A35.19,35.19,0,0,0,52.8,83.81,40,40,0,0,0,38.23,5.26Z"/><path class="cls-4" d="M4.4,53.91a40,40,0,0,0,48.4,29.9A35.19,35.19,0,0,1,26.62,73.32a36.4,36.4,0,0,1-6.53-8.85C14.82,62.94,9.46,59.6,4.4,53.91Z"/><path class="cls-5" d="M38.23,5.26c-1.24.16-2.47.38-3.69.65,7.53,3.47,13.42,8.26,17,14.33a26,26,0,0,1,11.2,42C75,49.43,74.29,28.7,61.13,15.55A34.93,34.93,0,0,0,38.23,5.26Z"/><path class="cls-6" d="M46.8,70.69A26,26,0,0,1,23,28.77C12.64,41.34,14,60.7,26.62,73.32a35.19,35.19,0,0,0,25.77,10.5C47.9,80,46.33,75.48,46.8,70.69Z"/><path class="cls-7" d="M38.23,5.26a34.93,34.93,0,0,1,22.9,10.29,35.42,35.42,0,0,1,8.36,13.2A13.61,13.61,0,0,1,78,24.84,40,40,0,0,0,38.23,5.26Z"/><path class="cls-8" d="M38.23,5.26a36.11,36.11,0,0,1,18.82,5.93,34.35,34.35,0,0,1,12.6,15.36A33,33,0,0,1,71.73,46.3a32,32,0,0,1-3.66,9.31,35.67,35.67,0,0,1-6.3,7.69,34.53,34.53,0,0,0,9-17.19,32,32,0,0,0,.31-9.71A35.09,35.09,0,0,0,68.55,27,34.33,34.33,0,0,0,56.54,12a36.83,36.83,0,0,0-8.7-4.5A38,38,0,0,0,38.23,5.26Z"/><path class="cls-9" d="M51.57,83.84a34.29,34.29,0,0,1-18.25-4.59A35.61,35.61,0,0,1,19.88,65.84a33.87,33.87,0,0,1-4.59-18.42,31,31,0,0,1,2.07-9.32,32,32,0,0,1,4.77-8.2A33.14,33.14,0,0,0,16.3,47.47a31,31,0,0,0,1.07,9.2,40.23,40.23,0,0,0,3.53,8.6,35.14,35.14,0,0,0,5.56,7.44,38.13,38.13,0,0,0,7.29,5.79A36.62,36.62,0,0,0,51.57,83.84Z"/><path class="cls-10" d="M70.48,72.82A41.69,41.69,0,0,1,47.6,84.54l1,.07A40,40,0,0,0,81.32,32.17,42,42,0,0,1,70.48,72.82Z"/><path class="cls-11" d="M270.08,36.53h-6.67l-1.34,3h-3.2L266,24.63h1.5l7.14,14.93h-3.2ZM264.49,34H269l-2.27-4.94Z"/><path class="cls-11" d="M287.3,23.59v16h-3v-.7a6.77,6.77,0,0,1-3.35.89,5.74,5.74,0,0,1-5.82-6A5.7,5.7,0,0,1,281,27.85a7.09,7.09,0,0,1,3.35.86V23.59Zm-3,12.49V31.47a4.34,4.34,0,0,0-2.82-1,3.29,3.29,0,0,0-3.43,3.31,3.23,3.23,0,0,0,3.43,3.28A4.28,4.28,0,0,0,284.34,36.08Z"/><path class="cls-11" d="M301.39,28.06l-5.51,11.5h-1.39L289,28.06h3.09l3.14,6.52,3.11-6.52Z"/><path class="cls-11" d="M304.76,34.64a3.18,3.18,0,0,0,3.29,2.57,3.68,3.68,0,0,0,3-1.42l1.89,1.57a6.34,6.34,0,0,1-5.19,2.37,5.94,5.94,0,0,1,0-11.88c3.53,0,5.59,2.56,5.59,6.14,0,.23,0,.46,0,.65Zm0-1.88h5.69a2.53,2.53,0,0,0-2.77-2.56A3,3,0,0,0,304.79,32.76Z"/><path class="cls-11" d="M326.33,33.14v6.42h-2.95V33.14c0-1.78-.86-2.65-2.49-2.65a3.79,3.79,0,0,0-2.55.91v8.16H315.4V28.06h2.94v.72a5.36,5.36,0,0,1,3.07-.93C324.78,27.85,326.33,29.41,326.33,33.14Z"/><path class="cls-11" d="M332.58,30.49v4.07c0,2,.34,2.65,1.82,2.65a12.7,12.7,0,0,0,1.36-.11v2.2a7,7,0,0,1-2.67.43,3.31,3.31,0,0,1-3.47-3.62V30.49H328V28.06h1.63V23.59h3v4.47h3.22v2.43Z"/><path class="cls-11" d="M348.57,28.06v11.5h-2.94V38.8a5.55,5.55,0,0,1-3.13.93c-3.37,0-4.92-1.57-4.92-5.3V28.06h2.95v6.37c0,1.78.87,2.65,2.5,2.65a3.93,3.93,0,0,0,2.6-.91V28.06Z"/><path class="cls-11" d="M354.21,29.67a4.37,4.37,0,0,1,3.62-1.82,2.31,2.31,0,0,1,.72.12v3.2a8.28,8.28,0,0,0-1.41-.17,2.77,2.77,0,0,0-2.93,3v5.55h-3V28.06h3Z"/><path class="cls-11" d="M362.67,34.64A3.17,3.17,0,0,0,366,37.21a3.69,3.69,0,0,0,3-1.42l1.88,1.57a6.33,6.33,0,0,1-5.19,2.37,5.94,5.94,0,0,1,0-11.88c3.54,0,5.59,2.56,5.59,6.14,0,.23,0,.46,0,.65Zm0-1.88h5.7a2.54,2.54,0,0,0-2.78-2.56A3,3,0,0,0,362.69,32.76Z"/><path class="cls-11" d="M271.47,55H266V69.22h-.78V55h-5.42v-.74h11.64Z"/><path class="cls-11" d="M284.08,63.46a6.2,6.2,0,1,1-6.18-5.87A6,6,0,0,1,284.08,63.46Zm-.76,0a5.44,5.44,0,1,0-5.42,5.1A5.28,5.28,0,0,0,283.32,63.46Z"/><path class="cls-11" d="M297.54,69.22h-.89l-4.28-6.5L287.8,67v2.27H287v-16h.77V65.94l8.7-8.13h1.06l-4.64,4.34Z"/><path class="cls-11" d="M309.89,63.78H299.38a5,5,0,0,0,5.07,4.78,5.48,5.48,0,0,0,4.38-1.93l.59.47a6.35,6.35,0,0,1-5,2.2,5.86,5.86,0,0,1,0-11.71c3.39,0,5.49,2.46,5.49,5.93Zm-10.51-.68h9.77c-.15-2.8-1.91-4.79-4.75-4.79A4.91,4.91,0,0,0,299.38,63.1Z"/><path class="cls-11" d="M323,62.63v6.59h-.76V62.63A4,4,0,0,0,318,58.34a6.39,6.39,0,0,0-4.41,1.58v9.3h-.76V57.81h.76v1.37a6.36,6.36,0,0,1,4.47-1.59A4.64,4.64,0,0,1,323,62.63Z"/><path class="cls-11" d="M134.86,31.63H120.27V69.3h-9.34V31.63H96.41v-8h38.45Z"/><path class="cls-11" d="M189.78,69.3H186l-13-30-12.9,30h-3.83l-18-45.71h10.05l10.31,27.75,12.52-27.75h3.82l12.45,27.75,10.31-27.75h10.05Z"/><path class="cls-11" d="M235.37,60H214.94l-4.08,9.27h-9.79l21.78-45.71h4.61L249.31,69.3h-9.79Zm-17.12-7.71h13.81l-6.94-15.11Z"/></svg>