<svg id="Layer_1" data-name="Layer 1" xmlns="http://www.w3.org/2000/svg" viewBox="0 0 305 90"><defs><style>.cls-1{fill:#fd6d52;fill-rule:evenodd;}</style></defs><path class="cls-1" d="M68.48,68.63A38.47,38.47,0,0,0,77,44.51V5.92H51.45V61.64A21.54,21.54,0,0,0,60,44.51V14.43h8.52V44.51A30,30,0,0,1,60,65.43a30.77,30.77,0,0,1-8.51,6.17,30,30,0,0,1-8.52,2.67V5.92H38.4a42.38,42.38,0,0,0-4.53.26,38,38,0,0,0-17,6.37A38.89,38.89,0,0,0,8.3,20.4,38.46,38.46,0,0,0-.21,44.51v30.8H25.33V27.39a21.55,21.55,0,0,0-8.51,17.12V66.79H8.3V44.51A30,30,0,0,1,16.82,23.6a30.81,30.81,0,0,1,8.51-6.18,30.32,30.32,0,0,1,8.52-2.66V83.09h4.53a42.42,42.42,0,0,0,4.54-.26,38.26,38.26,0,0,0,8.51-2A39.37,39.37,0,0,0,60,76.46a38,38,0,0,0,8.53-7.83"/><path d="M107.2,26.49V57H98.8V6l29.92,32V7.3h8.4V58.47Z"/><path d="M159.33,7.3h31v8.4H167.73V28h20v8.4h-20V48.64h22.61V57h-31Z"/><path d="M237,57l-10.2-18.41h-7.43V57H211V7.3H229.5a15.24,15.24,0,0,1,15.63,15.63,15.16,15.16,0,0,1-9.75,14.66L246.69,57ZM219.34,30.23h9.49c4.65,0,7.88-2.58,7.88-7.3s-3.23-7.23-7.88-7.23h-9.49Z"/><path d="M265.54,7.3H280a24.88,24.88,0,0,1,0,49.76H265.54ZM280,48.64a16.48,16.48,0,1,0,0-32.95h-6.07v33Z"/><path d="M100.3,67.54h9.92v2.68H103v4h6.41v2.68H103v6.61h-2.68V67.54Z"/><path d="M122.38,67.54h2.68V83.46h-2.68Z"/><path d="M140.87,73.68v9.78h-2.68V67.13l9.57,10.24V67.56h2.68V83.92Z"/><path d="M172.35,80.57h-6l-1.17,2.89h-3l7.24-16.33,7.23,16.33h-3Zm-1-2.52-2-4.84-2,4.84Z"/><path d="M190.89,73.68v9.78h-2.68V67.13l9.57,10.24V67.56h2.68V83.92Z"/><path d="M213,75.49a8.17,8.17,0,0,1,8.27-8.15,7.67,7.67,0,0,1,3.7.93V71.6a5.19,5.19,0,0,0-3.73-1.53,5.45,5.45,0,1,0,0,10.89A5.09,5.09,0,0,0,225,79.42v3.35a7.83,7.83,0,0,1-3.7.92A8.2,8.2,0,0,1,213,75.49Z"/><path d="M237.67,67.54h9.93v2.68h-7.23v4h6.4v2.68h-6.4v3.93h7.23v2.68h-9.93Z"/></svg>