<svg id="Laag_1" data-name="Laag 1" xmlns="http://www.w3.org/2000/svg" viewBox="0 0 240 80"><defs><style>.cls-1{fill:#fff;}.cls-2{fill:#fab329;}.cls-3,.cls-4{fill:#010101;}.cls-4{opacity:0.17;isolation:isolate;}.cls-5{fill:#d49719;}.cls-6{fill:#2d2c2c;}</style></defs><g id="Layer_2" data-name="Layer 2"><g id="Layer_1-2" data-name="Layer 1-2"><path class="cls-1" d="M16,76.66S44.57,80.9,63.25,59.5,74.69,11.19,74.69,11.19s-5.44,8.22-8.51,8.65c0,0,.32-13.84-7.41-16.84,0,0-9,.63-11,9.44A35.7,35.7,0,0,0,24.92,17S18,13.55,15,17.17,14.35,29,14.35,29s-.67,5.44-3.53,6.26-6.49-.76-7.12,2.47-4.41,6.84,7.86,15.18,17.92,9.43,17.92,9.43S21.17,73.69,16,76.66Z"/><path class="cls-2" d="M49.34,44.87C36.12,59.2,28.58,58.09,28.58,58.09a51.32,51.32,0,0,1-7.68-3.63h0a33.34,33.34,0,0,1-3.84-2.62C9,45.41,10.14,38.92,12.84,37.61A8.24,8.24,0,0,0,16,34.35h0c.25-.43.49-.87.7-1.31l.27-.56a25.92,25.92,0,0,0,1.39-3.81,13.86,13.86,0,0,1-1.07-8.44,1.65,1.65,0,0,1,1.8-1.34c2.4.28,4.15,3,4.15,3a30.45,30.45,0,0,1,27.07-5.67,12.78,12.78,0,0,1,6.36-8.94,1.63,1.63,0,0,1,1.87.16l0,0h0C68.06,15.85,62.19,31,49.34,44.87Z"/><path class="cls-1" d="M25.92,34.72s5.34-7.5,17.37-7.95C43.29,26.77,45.67,37.73,25.92,34.72Z"/><path class="cls-1" d="M20.6,39.36S20.28,41,23,40.71s14.48-1.07,15.43-.63C38.39,40.08,37.6,37.78,20.6,39.36Z"/><path class="cls-1" d="M20.75,41.73s-.54,1.55,2.14,1.69,14.49,1,15.36,1.6C38.25,45,37.8,42.64,20.75,41.73Z"/><path class="cls-2" d="M65.7,45.48h0A46.58,46.58,0,0,1,53.15,61.3c-1,.8-2,1.58-3.12,2.34C43.72,68,35.54,71.5,24.93,73.4a.4.4,0,0,1-.46-.33.42.42,0,0,1,.13-.37C27.7,70,36.28,62.07,38.89,54.12a13.22,13.22,0,0,0,.66-5.75C38.07,37.11,52.72,32,52.72,32a83.91,83.91,0,0,0,8-3.63c3.67-1.91,7.63-4.39,9.58-7a.4.4,0,0,1,.72.23A54.16,54.16,0,0,1,65.7,45.48Z"/><path class="cls-3" d="M30.24,33.16s2.81-3.67,9.57-4.16C39.81,29,41.45,34.1,30.24,33.16Z"/><path class="cls-4" d="M50.44,19.84c-9-4-24,3.83-25.81,4.78.13,0,.23.4-.17,2.15-.65,2.84-7.54,12.55-7.54,12.55-.79-.83-2.57.45-2.57.45C13.67,41.45,16,45,16,45c-1.09,4.63,4.75,9.33,4.91,9.46a33.26,33.26,0,0,1-3.84-2.61C9,45.44,10.13,38.94,12.83,37.63A8.17,8.17,0,0,0,16,34.37h0c.25-.43.49-.87.7-1.3l.27-.57a25.51,25.51,0,0,0,1.39-3.81,13.85,13.85,0,0,1-1.07-8.44,1.64,1.64,0,0,1,1.8-1.33c2.4.27,4.15,3,4.15,3a30.45,30.45,0,0,1,27.07-5.67,12.77,12.77,0,0,1,6.37-9,1.63,1.63,0,0,1,1.87.16c-2.09.6-4.69,2.19-3.81,6.43,1.42,6.76,6.14,5.66,6.14,5.66S60,24.09,50.44,19.84Z"/><path class="cls-5" d="M13.81,43.07s-1,.7-8.32-2.07c0,0,7.1,1.31,7.62.84S13.81,43.07,13.81,43.07Z"/><path class="cls-5" d="M14.35,41.39s-1,.7-8.32-2.07c0,0,7.09,1.31,7.61.83S14.35,41.39,14.35,41.39Z"/><path class="cls-1" d="M18.68,34.14l-.78.07c-.67,0-1.31.08-1.93.11a12.77,12.77,0,0,0,.7-1.31c.1-.19.19-.37.27-.56A11.59,11.59,0,0,1,18.68,34.14Z"/><circle class="cls-1" cx="36.91" cy="29.62" r="1.42"/><path class="cls-4" d="M65.7,45.48c2.83-11.81-.93-14.71-.93-14.71C63.54,37.83,44.91,48.82,44.62,49A64.57,64.57,0,0,0,60.75,28.38c3.67-1.91,7.63-4.39,9.58-7a.4.4,0,0,1,.56-.07.38.38,0,0,1,.16.31A54,54,0,0,1,65.7,45.48Z"/><path class="cls-4" d="M50,63.66c-6.31,4.35-14.49,7.86-25.1,9.76,0,0,12-9.74,25.88-19.48C50.81,53.94,54.07,57,50,63.66Z"/><polygon class="cls-1" points="35.83 64.81 50.51 49.17 44.32 49.17 62.25 35.24 54.85 45.81 60.83 45.81 35.83 64.81"/><path class="cls-3" d="M16.92,39.32s-2.3-1.48-3.28.83S16,44.55,16,44.55s3.1-1.44,3.63-3.55S16.92,39.32,16.92,39.32Z"/><path class="cls-6" d="M91.28,41.74l-1.41,1.48a.51.51,0,0,0-.13.33v3.89a.5.5,0,0,1-.49.5H85.13a.5.5,0,0,1-.5-.5V30.23a.5.5,0,0,1,.5-.5h4.12a.5.5,0,0,1,.49.5v5.85a.49.49,0,0,0,.53.46.55.55,0,0,0,.31-.14l6.06-6.5a.52.52,0,0,1,.35-.16h4.35a.51.51,0,0,1,.47.52.44.44,0,0,1-.11.29l-6.43,6.93a.48.48,0,0,0,0,.62l7,9a.49.49,0,0,1-.12.69.43.43,0,0,1-.26.09H97.08a.49.49,0,0,1-.38-.18l-4.7-6a.49.49,0,0,0-.7-.05Z"/><path class="cls-6" d="M103.14,29.66a2.73,2.73,0,0,1,3-2.62c1.81,0,3,1.07,3,2.55a2.78,2.78,0,0,1-3,2.7A2.73,2.73,0,0,1,103.14,29.66Zm1,4.19h4a.49.49,0,0,1,.5.49v13.1a.5.5,0,0,1-.5.5h-4a.51.51,0,0,1-.5-.5V34.33A.5.5,0,0,1,104.17,33.85Z"/><path class="cls-6" d="M121.39,47a.5.5,0,0,1-.25.61,7.36,7.36,0,0,1-3,.59c-3.61,0-5.72-1.77-5.72-5.38V38.54a.5.5,0,0,0-.49-.5H110.8a.49.49,0,0,1-.49-.49V34.83a.49.49,0,0,1,.49-.49h1.11a.49.49,0,0,0,.49-.5V31.18a.5.5,0,0,1,.5-.5h3.95a.5.5,0,0,1,.5.5v2.7a.49.49,0,0,0,.49.49h2.26a.49.49,0,0,1,.49.5v2.71a.49.49,0,0,1-.49.5h-2.26a.49.49,0,0,0-.49.49v4.2a1.43,1.43,0,0,0,1.48,1.6,2.93,2.93,0,0,0,1.06-.2.5.5,0,0,1,.63.29Z"/><path class="cls-6" d="M132.71,47a.5.5,0,0,1-.25.61,7.36,7.36,0,0,1-3,.59c-3.61,0-5.71-1.77-5.71-5.38V38.54a.5.5,0,0,0-.49-.5h-1.09a.49.49,0,0,1-.5-.49V34.83a.49.49,0,0,1,.5-.49h1.09a.49.49,0,0,0,.49-.5V31.18a.49.49,0,0,1,.49-.5h4a.49.49,0,0,1,.49.5v2.7a.49.49,0,0,0,.5.49h2.25a.5.5,0,0,1,.5.5v2.71a.5.5,0,0,1-.5.5h-2.25a.49.49,0,0,0-.5.49v4.2a1.43,1.43,0,0,0,1.49,1.6,3,3,0,0,0,1.06-.2.5.5,0,0,1,.63.29Z"/><path class="cls-6" d="M148.19,42.13h-9.06a.49.49,0,0,0-.47.51.46.46,0,0,0,.05.2,3.4,3.4,0,0,0,3.15,1.55,4.48,4.48,0,0,0,2.92-1,.49.49,0,0,1,.63.05l2,2a.5.5,0,0,1,0,.7,7.83,7.83,0,0,1-5.65,1.93c-5,0-8.26-3.1-8.26-7.3s3.3-7.25,7.74-7.25c4.16,0,7.53,2.65,7.53,7.3a5.43,5.43,0,0,1,0,.78A.5.5,0,0,1,148.19,42.13ZM139,39.54h4.48a.5.5,0,0,0,.46-.67,3,3,0,0,0-5.39,0,.5.5,0,0,0,.3.64.4.4,0,0,0,.15,0Z"/><path class="cls-6" d="M166,39.87v7.57a.5.5,0,0,1-.49.5h-4a.5.5,0,0,1-.49-.5V40.68c0-2-.88-2.88-2.31-2.88-1.59,0-2.81,1-2.81,3.32v6.32a.5.5,0,0,1-.49.5h-4a.5.5,0,0,1-.49-.5V34.33a.49.49,0,0,1,.49-.49h3.73a.49.49,0,0,1,.5.49h0a.5.5,0,0,0,.52.47.43.43,0,0,0,.24-.08,6.37,6.37,0,0,1,3.71-1.11C163.47,33.61,166,35.51,166,39.87Z"/><path class="cls-6" d="M168.91,45.33l.21-.42a.59.59,0,0,1,.79-.26l.09.05a9.29,9.29,0,0,0,5.46,1.74c3.4,0,4.88-1.43,4.88-3.22,0-5-11.19-1.92-11.19-8.65,0-2.67,2.08-5,6.7-5a10.62,10.62,0,0,1,5.2,1.33.57.57,0,0,1,.24.73l-.2.47a.57.57,0,0,1-.75.31l-.06,0a9.24,9.24,0,0,0-4.45-1.17c-3.32,0-4.8,1.48-4.8,3.29,0,5,11.2,2,11.2,8.6,0,2.68-2.14,4.94-6.79,4.94A10.4,10.4,0,0,1,169,46,.58.58,0,0,1,168.91,45.33Z"/><path class="cls-6" d="M205.52,35.05l-4.73,12.5a.58.58,0,0,1-.54.37h-.95a.57.57,0,0,1-.53-.37l-3.63-9.39a.58.58,0,0,0-.75-.34.56.56,0,0,0-.33.34l-3.63,9.39a.59.59,0,0,1-.54.37H189a.6.6,0,0,1-.55-.37l-4.7-12.5a.58.58,0,0,1,.34-.75.71.71,0,0,1,.2,0h.53a.59.59,0,0,1,.54.38l3.61,9.77a.58.58,0,0,0,.74.35.6.6,0,0,0,.35-.35l3.69-9.77a.59.59,0,0,1,.55-.38H195a.6.6,0,0,1,.54.38l3.68,9.78a.57.57,0,0,0,.75.33.59.59,0,0,0,.33-.33L204,34.64a.57.57,0,0,1,.54-.38H205a.58.58,0,0,1,.58.58A.78.78,0,0,1,205.52,35.05Z"/><path class="cls-6" d="M218.49,40.15v7.19a.58.58,0,0,1-.58.58h-.61a.57.57,0,0,1-.59-.56v0h0a.58.58,0,0,0-.58-.58.55.55,0,0,0-.37.14A5.76,5.76,0,0,1,212,48.05c-3.09,0-5-1.61-5-3.95,0-2.11,1.35-3.87,5.27-3.87h3.75a.58.58,0,0,0,.58-.58h0V39.4c0-2.34-1.32-3.61-3.86-3.61A7.09,7.09,0,0,0,208.72,37a.59.59,0,0,1-.82-.14l0,0-.22-.37a.58.58,0,0,1,.16-.78,8.67,8.67,0,0,1,4.28-1.49,5.94,5.94,0,0,1,6.37,5.47C218.48,39.83,218.49,40,218.49,40.15Zm-1.85,3.54V42.17a.58.58,0,0,0-.58-.58h-3.7c-2.65,0-3.51,1-3.51,2.44,0,1.58,1.28,2.57,3.46,2.57a4.38,4.38,0,0,0,4.29-2.66A.69.69,0,0,0,216.64,43.69Z"/><path class="cls-6" d="M237.34,41.09a6.61,6.61,0,0,1-6.8,7,6.09,6.09,0,0,1-4.21-1.55.59.59,0,0,0-.83,0,.58.58,0,0,0-.16.4v5.44a.58.58,0,0,1-.58.57h-.68a.58.58,0,0,1-.59-.57h0V34.85a.58.58,0,0,1,.59-.59h.6a.58.58,0,0,1,.58.58h0v.49a.59.59,0,0,0,.57.6.56.56,0,0,0,.42-.16,6.15,6.15,0,0,1,4.3-1.64A6.62,6.62,0,0,1,237.34,41.09Zm-1.84,0a5.09,5.09,0,1,0-10.18,0,5.1,5.1,0,1,0,10.18,0Z"/></g></g></svg>