<svg id="Layer_1" data-name="Layer 1" xmlns="http://www.w3.org/2000/svg" xmlns:xlink="http://www.w3.org/1999/xlink" viewBox="0 0 260 90"><defs><style>.cls-1{fill-rule:evenodd;fill:url(#Naamloos_verloop_12);}.cls-2{fill:#081017;}</style><linearGradient id="Naamloos_verloop_12" x1="-107.68" y1="464.99" x2="-107.68" y2="464.79" gradientTransform="matrix(480, 0, 0, -400, 51742.96, 185999.89)" gradientUnits="userSpaceOnUse"><stop offset="0" stop-color="#006ef5"/><stop offset="1" stop-color="#0062db"/></linearGradient></defs><g id="ichi_logo_dark_horizontal" data-name="ichi logo dark horizontal"><g id="Group"><path id="Fill-4" class="cls-1" d="M36.44,40.66V23.85A106.36,106.36,0,0,0,55.1,25.43a106.53,106.53,0,0,0,18.66-1.58V40.66ZM55.1,64.57a106.36,106.36,0,0,0-18.66,1.58V49.34H73.76V66.15A106.53,106.53,0,0,0,55.1,64.57Zm31.28-44,.23-.08A67.91,67.91,0,0,0,100.36,14a5.88,5.88,0,0,0,2.73-5,4.08,4.08,0,0,0-6.4-3.32,59.12,59.12,0,0,1-17.85,7.86l-.71.2c-1.09.28-2.23.54-3.41.78l-1.08.22c-1,.19-2,.36-3,.53l-.94.14c-1.33.2-2.7.37-4.13.51l-.75.07c-1.23.11-2.5.2-3.8.28l-1.1.05c-1.57.07-3.17.12-4.83.12s-3.26-.05-4.82-.12c-.39,0-.77,0-1.15-.06-1.25-.07-2.47-.15-3.66-.26L44.56,16c-1.38-.14-2.7-.31-4-.5l-1.25-.2c-.87-.13-1.72-.28-2.54-.44-.5-.1-1-.19-1.48-.3-.84-.17-1.65-.36-2.45-.56s-1.45-.37-2.16-.57A58.73,58.73,0,0,1,13.52,5.72,4.1,4.1,0,0,0,7.09,9a5.85,5.85,0,0,0,2.73,5,68,68,0,0,0,13.73,6.5l.28.1c1.11.38,2.27.74,3.46,1.09V40.66h-4A3.23,3.23,0,0,0,20,43.87a5.5,5.5,0,0,0,5.53,5.47h1.76V68.28c-1.19.36-2.35.72-3.46,1.1l-.28.1A68,68,0,0,0,9.82,76a5.84,5.84,0,0,0-2.73,5,4.1,4.1,0,0,0,6.43,3.32,58.73,58.73,0,0,1,17.17-7.67c.71-.2,1.42-.39,2.16-.57s1.61-.39,2.45-.57l1.48-.29c.82-.16,1.67-.31,2.54-.44l1.25-.21c1.29-.18,2.61-.35,4-.49l.91-.08q1.78-.17,3.66-.27l1.15,0c1.56-.07,3.16-.12,4.82-.12s3.26,0,4.83.12l1.1,0c1.3.07,2.57.17,3.8.28l.75.06c1.43.15,2.8.32,4.13.52l.94.14c1,.17,2,.34,3,.53l1.08.21c1.18.25,2.32.51,3.41.79l.71.2a59.12,59.12,0,0,1,17.85,7.86,4.08,4.08,0,0,0,6.4-3.32,5.88,5.88,0,0,0-2.73-5,67.38,67.38,0,0,0-13.75-6.5l-.23-.08c-1.11-.39-2.28-.75-3.48-1.11V49.34h4a3.23,3.23,0,0,0,3.25-3.21,5.51,5.51,0,0,0-5.54-5.47H82.9V21.71c1.2-.35,2.37-.71,3.48-1.1Z"/><path id="ICHI" class="cls-2" d="M138.18,70.73c2.36,0,3.54-.67,3.54-2h0V25.29c0-1.35-1.18-2-3.54-2h-1.67c-2.4,0-3.61.67-3.61,2h0V68.71c0,1.35,1.21,2,3.61,2h1.67ZM173.9,71a34.24,34.24,0,0,0,6.68-.67,19,19,0,0,0,5.55-1.88c1.51-.86,2.27-1.8,2.27-2.83a5.55,5.55,0,0,0-.54-1.81,9.54,9.54,0,0,0-1.3-2.26,2,2,0,0,0-1.5-1,4.14,4.14,0,0,0-1.47.54,28.68,28.68,0,0,1-4.34,1.68,18.93,18.93,0,0,1-5.35.67q-6.47,0-9.65-4.1T161.08,47q0-8.4,3.17-12.44t9.79-4a19.92,19.92,0,0,1,4.91.54,19.07,19.07,0,0,1,3.5,1.21,8.28,8.28,0,0,0,1.6.67c.45,0,.95-.34,1.51-1A11.79,11.79,0,0,0,187,29.62a5.23,5.23,0,0,0,.63-2.12c0-.71-.56-1.39-1.67-2a18,18,0,0,0-5.21-1.78,31.9,31.9,0,0,0-6.61-.71q-22.09,0-22.1,23.93,0,12.38,5.31,18.22T173.9,71ZM201,70.66q3.54,0,3.54-2V50.25h20.16V68.71q0,2,3.54,2H230q3.54,0,3.54-2V25.29q0-2-3.54-1.95h-1.74q-3.54,0-3.54,1.95V42.66H204.56V25.29q0-2-3.54-1.95h-1.74q-3.54,0-3.54,1.95V68.71q0,2,3.54,2Zm48.35.07c2.36,0,3.54-.67,3.54-2h0V25.29c0-1.35-1.18-2-3.54-2H247.7c-2.41,0-3.61.67-3.61,2h0V68.71c0,1.35,1.2,2,3.61,2h1.67Z"/></g></g></svg>