<svg xmlns="http://www.w3.org/2000/svg" xmlns:xlink="http://www.w3.org/1999/xlink" width="1024" height="1024" viewBox="0 0 1024 1024">
  <defs>
    <clipPath id="clip-path">
      <rect id="Rectangle_2431" data-name="Rectangle 2431" width="1024" height="932" transform="translate(0 1812.161)" fill="#fff" stroke="#707070" stroke-width="1"/>
    </clipPath>
    <linearGradient id="linear-gradient" x1="1.121" y1="0.165" x2="0.814" y2="1.099" gradientUnits="objectBoundingBox">
      <stop offset="0" stop-color="#fff" stop-opacity="0.141"/>
      <stop offset="1" stop-color="#fff"/>
    </linearGradient>
    <clipPath id="clip-logo-background-2">
      <rect width="1024" height="1024"/>
    </clipPath>
  </defs>
  <g id="logo-background-2" clip-path="url(#clip-logo-background-2)">
    <g id="Mask_Group_1" data-name="Mask Group 1" transform="translate(0 -1720.161)" clip-path="url(#clip-path)">
      <g id="Group_3061" data-name="Group 3061" transform="translate(-466.065 1811.94)" opacity="0.05">
        <g id="Group_5" data-name="Group 5">
          <g id="Group_2" data-name="Group 2" transform="translate(0 320.518)">
            <path id="Path_15" data-name="Path 15" d="M1632.9,1609.469q15.258-15.262,29.727-31.7c197.176-224.327,175.1-567.243-49.229-764.448-173.625-152.624-434.749-143.371-597.442,15.746-12.958,12.666-12.037,33.8,1.551,45.757l.053.028a31.421,31.421,0,0,0,42.788-1.367c139.459-135.883,362.944-143.636,511.6-12.986,198.307,174.339,217.808,477.49,43.5,675.8-8.726,9.908-17.74,19.526-26.94,28.726-223.985,224.037-587.665,238.415-828.893,26.361C562.837,1418.414,476.129,1166.1,505.251,923.738a31.239,31.239,0,0,0-25.757-34.4h0a31.517,31.517,0,0,0-36.639,27.388c-31.3,262.07,62.529,534.809,275.29,721.84C984.339,1872.562,1385.711,1856.635,1632.9,1609.469Z" transform="translate(-436.969 -704.105)" fill="url(#linear-gradient)"/>
          </g>
          <g id="Group_3" data-name="Group 3" transform="translate(162.188)">
            <path id="Path_16" data-name="Path 16" d="M1357.849,1841.518a474.53,474.53,0,0,0,128.55-235.393c43.288-198.806-75.038-396.06-266.984-455.724a31.564,31.564,0,0,0-40.423,23.208h0c-3.522,16.139,6.177,31.908,21.947,36.823,161.09,50.176,260.386,215.626,224.089,382.34-48.912,224.59-272.74,367.2-498.932,317.923-139.065-30.28-258.075-112.52-335.111-231.583-77.009-119.007-102.845-260.543-72.8-398.528,76.405-350.724,418.533-576.892,771.305-515.966a31.264,31.264,0,0,0,35.8-24.206l.027-.053a31.457,31.457,0,0,0-25.337-37.666c-385.626-66.5-759.61,180.962-843.164,564.538-33.643,154.465-4.7,312.849,81.451,446,86.1,133.07,219.1,224.985,374.457,258.838C1079.72,2008.44,1245.619,1953.722,1357.849,1841.518Z" transform="translate(-443.139 -691.909)" fill="url(#linear-gradient)"/>
          </g>
          <g id="Group_4" data-name="Group 4" transform="translate(320.598 168.02)">
            <path id="Path_17" data-name="Path 17" d="M1584.207,1420.659a31.5,31.5,0,0,0,34.01-30.28c12.3-355.688-249.322-661.939-597-690.351-290.113-23.734-546.058,200.25-570.528,499.326-19.816,242.674,155.649,455.8,391.2,475.069,180.537,14.772,341.024-115.357,372.879-295.345a31.574,31.574,0,0,0-28.308-37.243h-.025c-16.375-1.341-30.674,10.252-33.537,26.442-26.337,148.369-157.937,255.656-305.883,243.539-201.039-16.425-350.749-199.173-333.718-407.365,21.631-264.537,247.193-462.737,502.8-441.843,314.19,25.7,550.554,303.282,539.356,625.723a31.3,31.3,0,0,0,28.73,32.327Z" transform="translate(-449.166 -698.303)" fill="url(#linear-gradient)"/>
          </g>
        </g>
        <g id="Group_9" data-name="Group 9">
          <g id="Group_6" data-name="Group 6" transform="translate(0 320.518)">
            <path id="Path_18" data-name="Path 18" d="M1632.9,1609.469q15.258-15.262,29.727-31.7c197.176-224.327,175.1-567.243-49.229-764.448-173.625-152.624-434.749-143.371-597.442,15.746-12.958,12.666-12.037,33.8,1.551,45.757l.053.028a31.421,31.421,0,0,0,42.788-1.367c139.459-135.883,362.944-143.636,511.6-12.986,198.307,174.339,217.808,477.49,43.5,675.8-8.726,9.908-17.74,19.526-26.94,28.726-223.985,224.037-587.665,238.415-828.893,26.361C562.837,1418.414,476.129,1166.1,505.251,923.738a31.239,31.239,0,0,0-25.757-34.4h0a31.517,31.517,0,0,0-36.639,27.388c-31.3,262.07,62.529,534.809,275.29,721.84C984.339,1872.562,1385.711,1856.635,1632.9,1609.469Z" transform="translate(-436.969 -704.105)" fill="url(#linear-gradient)"/>
          </g>
          <g id="Group_7" data-name="Group 7" transform="translate(162.188)">
            <path id="Path_19" data-name="Path 19" d="M1357.849,1841.518a474.53,474.53,0,0,0,128.55-235.393c43.288-198.806-75.038-396.06-266.984-455.724a31.564,31.564,0,0,0-40.423,23.208h0c-3.522,16.139,6.177,31.908,21.947,36.823,161.09,50.176,260.386,215.626,224.089,382.34-48.912,224.59-272.74,367.2-498.932,317.923-139.065-30.28-258.075-112.52-335.111-231.583-77.009-119.007-102.845-260.543-72.8-398.528,76.405-350.724,418.533-576.892,771.305-515.966a31.264,31.264,0,0,0,35.8-24.206l.027-.053a31.457,31.457,0,0,0-25.337-37.666c-385.626-66.5-759.61,180.962-843.164,564.538-33.643,154.465-4.7,312.849,81.451,446,86.1,133.07,219.1,224.985,374.457,258.838C1079.72,2008.44,1245.619,1953.722,1357.849,1841.518Z" transform="translate(-443.139 -691.909)" fill="url(#linear-gradient)"/>
          </g>
          <g id="Group_8" data-name="Group 8" transform="translate(320.598 168.02)">
            <path id="Path_20" data-name="Path 20" d="M1584.207,1420.659a31.5,31.5,0,0,0,34.01-30.28c12.3-355.688-249.322-661.939-597-690.351-290.113-23.734-546.058,200.25-570.528,499.326-19.816,242.674,155.649,455.8,391.2,475.069,180.537,14.772,341.024-115.357,372.879-295.345a31.574,31.574,0,0,0-28.308-37.243h-.025c-16.375-1.341-30.674,10.252-33.537,26.442-26.337,148.369-157.937,255.656-305.883,243.539-201.039-16.425-350.749-199.173-333.718-407.365,21.631-264.537,247.193-462.737,502.8-441.843,314.19,25.7,550.554,303.282,539.356,625.723a31.3,31.3,0,0,0,28.73,32.327Z" transform="translate(-449.166 -698.303)" fill="url(#linear-gradient)"/>
          </g>
        </g>
      </g>
    </g>
  </g>
</svg>
