<svg xmlns="http://www.w3.org/2000/svg" xmlns:xlink="http://www.w3.org/1999/xlink" width="1024" height="1024" viewBox="0 0 1024 1024">
  <defs>
    <linearGradient id="linear-gradient" x1="1.121" y1="0.165" x2="0.814" y2="1.099" gradientUnits="objectBoundingBox">
      <stop offset="0" stop-color="#fff" stop-opacity="0.141"/>
      <stop offset="1" stop-color="#fff"/>
    </linearGradient>
    <clipPath id="clip-logo-background">
      <rect width="1024" height="1024"/>
    </clipPath>
  </defs>
  <g id="logo-background" clip-path="url(#clip-logo-background)">
    <g id="Group_3071" data-name="Group 3071" transform="translate(52.694 72.955)" opacity="0.05">
      <g id="Group_5" data-name="Group 5">
        <g id="Group_2" data-name="Group 2" transform="translate(0 198.024)">
          <path id="Path_15" data-name="Path 15" d="M1175.846,1263.46q9.427-9.429,18.366-19.584c121.82-138.595,108.179-350.457-30.415-472.294C1056.527,677.287,895.2,683,794.683,781.31a19.332,19.332,0,0,0,.958,28.27l.033.018a19.413,19.413,0,0,0,26.435-.845c86.161-83.952,224.236-88.742,316.08-8.023,122.519,107.711,134.567,295,26.875,417.523-5.391,6.121-10.96,12.063-16.644,17.748-138.383,138.416-363.073,147.3-512.11,16.286C514.733,1145.422,461.163,989.534,479.155,839.8a19.3,19.3,0,0,0-15.914-21.255h0A19.472,19.472,0,0,0,440.6,835.465c-19.34,161.913,38.632,330.417,170.081,445.97C775.147,1426.005,1023.124,1416.166,1175.846,1263.46Z" transform="translate(-436.969 -704.104)" fill="url(#linear-gradient)"/>
        </g>
        <g id="Group_3" data-name="Group 3" transform="translate(100.204)">
          <path id="Path_16" data-name="Path 16" d="M1008.269,1402.164a293.176,293.176,0,0,0,79.421-145.431c26.744-122.827-46.36-244.7-164.949-281.557a19.5,19.5,0,0,0-24.974,14.338h0a19.542,19.542,0,0,0,13.559,22.75c99.525,31,160.872,133.219,138.447,236.219-30.219,138.757-168.505,226.867-308.252,196.42-85.918-18.708-159.445-69.518-207.04-143.078-47.578-73.525-63.54-160.969-44.98-246.22C536.706,838.92,748.081,699.188,966.032,736.83a19.316,19.316,0,0,0,22.117-14.955l.017-.033a19.435,19.435,0,0,0-15.654-23.271c-238.249-41.083-469.305,111.8-520.927,348.785-20.785,95.432-2.906,193.286,50.323,275.549,53.2,82.214,135.363,139,231.348,159.916A298.728,298.728,0,0,0,1008.269,1402.164Z" transform="translate(-443.139 -691.909)" fill="url(#linear-gradient)"/>
        </g>
        <g id="Group_4" data-name="Group 4" transform="translate(198.073 103.807)">
          <path id="Path_17" data-name="Path 17" d="M1150.421,1144.592a19.461,19.461,0,0,0,21.012-18.708c7.6-219.752-154.037-408.962-368.839-426.516-179.239-14.664-337.368,123.719-352.486,308.5-12.243,149.93,96.164,281.606,241.693,293.509,111.54,9.127,210.693-71.271,230.374-182.471a19.507,19.507,0,0,0-17.49-23.01h-.016a19.536,19.536,0,0,0-20.72,16.337c-16.271,91.666-97.577,157.95-188.982,150.464-124.207-10.148-216.7-123.054-206.179-251.68,13.364-163.437,152.722-285.89,310.64-272.981,194.114,15.88,340.146,187.375,333.227,386.587a19.339,19.339,0,0,0,17.75,19.973Z" transform="translate(-449.166 -698.303)" fill="url(#linear-gradient)"/>
        </g>
      </g>
    </g>
  </g>
</svg>
