<svg xmlns="http://www.w3.org/2000/svg" xmlns:xlink="http://www.w3.org/1999/xlink" width="1024" height="1024" viewBox="0 0 1024 1024">
  <defs>
    <linearGradient id="linear-gradient" x1="0.5" x2="0.5" y2="1" gradientUnits="objectBoundingBox">
      <stop offset="0" stop-color="#e17f14"/>
      <stop offset="0.296" stop-color="#e07c14"/>
      <stop offset="0.474" stop-color="#df7414"/>
      <stop offset="0.621" stop-color="#dc6515"/>
      <stop offset="0.75" stop-color="#d95116"/>
      <stop offset="0.869" stop-color="#d53718"/>
      <stop offset="0.978" stop-color="#d0171a"/>
      <stop offset="1" stop-color="#cf101b"/>
    </linearGradient>
    <clipPath id="clip-logo-footer">
      <rect width="1024" height="1024"/>
    </clipPath>
  </defs>
  <g id="logo-footer" clip-path="url(#clip-logo-footer)">
    <g id="Group_3531" data-name="Group 3531" transform="translate(-146.041 -60.623)">
      <g id="Group_3529" data-name="Group 3529" transform="translate(146.041 656.585)">
        <path id="Path_935" data-name="Path 935" d="M162.116,325.673c20.7,8.95,36.459,13.592,57.483,13.592,19.778,0,27.509-7.424,27.509-16.066,0-9.582-9.582-13.917-35.546-19.471-36.16-8.038-62.432-19.787-62.432-52.236,0-30.29,25.034-51.306,63.976-51.306,26.272,0,47.287,6.177,65.521,13.592l-14.215,31.528c-16.382-6.177-35.537-10.81-52.227-10.81-16.383,0-24.727,5.87-24.727,14.838,0,9.266,10.2,13.592,37.091,19.155,38.942,8.038,61.5,21.63,61.5,52.236,0,31.826-24.42,52.85-67.381,52.85-29.044,0-47.9-4.028-72.628-16.084Z" transform="translate(-146.041 -138.07)" fill="#fff"/>
        <path id="Path_936" data-name="Path 936" d="M229.329,294.05v59.343c0,29.983,4.94,38.635,26.579,38.635a178.8,178.8,0,0,0,19.778-1.535v32.133c-1.851.623-14.829,6.186-38.942,6.186-28.132,0-50.692-17.62-50.692-52.85V294.05H162.264V258.513h23.788v-65.2h43.277v65.2h46.98V294.05Z" transform="translate(-15.753 -193.308)" fill="#fff"/>
        <path id="Path_937" data-name="Path 937" d="M220.376,226.774c11.442-15.768,29.062-26.28,52.859-26.588a32.494,32.494,0,0,1,10.5,1.86V248.7s-11.741-2.457-20.7-2.457c-30.914,0-42.663,21.937-42.663,43.873V371.1H177.117V203.275h43.259Z" transform="translate(103.533 -138.07)" fill="#fff"/>
        <path id="Path_938" data-name="Path 938" d="M351.379,200.528V368.353H308.427V357.227c-12.671,8.652-28.439,13.6-45.742,13.6-49.147,0-71.707-22.876-71.707-77.27V200.528h42.961v93.029c0,25.956,12.68,38.626,36.467,38.626,15.461,0,28.132-4.94,38.021-13.285V200.528Z" transform="translate(214.852 -135.324)" fill="#fff"/>
        <path id="Path_939" data-name="Path 939" d="M388.424,193.308V426.337H345.165v-10.2a98.433,98.433,0,0,1-48.84,12.978c-46.664,0-84.983-35.23-84.983-86.852,0-52.534,38.319-86.843,84.983-86.843a101.569,101.569,0,0,1,48.84,12.671V193.308ZM345.165,375.655V308.274c-10.205-8.652-24.727-14.224-41.11-14.224-28.737,0-50.068,20.717-50.068,48.217,0,28.439,21.331,47.9,50.068,47.9C320.131,390.168,334.96,384.614,345.165,375.655Z" transform="translate(378.397 -193.308)" fill="#fff"/>
        <path id="Path_940" data-name="Path 940" d="M276.446,299.393c4.633,21.946,22.253,37.4,47.9,37.4,17.62,0,33.993-8.038,43.268-20.7l27.509,22.867c-15.452,21.015-42.952,34.616-75.726,34.616-50.683,0-85.913-38.644-85.913-86.545,0-48.217,35.23-86.843,85.913-86.843,51.613,0,81.6,37.4,81.6,89.625,0,3.4-.307,6.8-.307,9.582Zm.307-27.5h83.14c-1.553-19.164-11.749-37.4-40.5-37.4C296.838,234.5,280.772,251.185,276.753,271.893Z" transform="translate(556.23 -138.07)" fill="#fff"/>
        <path id="Path_941" data-name="Path 941" d="M254.635,193.308h43.277V426.337H254.635Z" transform="translate(726.088 -193.308)" fill="#fff"/>
        <path id="Path_942" data-name="Path 942" d="M166.132,228.467v33.37h35.221v3.152H166.132v25.585H162.7V225.225h43.756v3.242Z" transform="translate(-12.251 63.02)" fill="#fff"/>
        <path id="Path_943" data-name="Path 943" d="M178.642,290.574h-3.423V225.225h3.423Z" transform="translate(88.29 63.02)" fill="#fff"/>
        <path id="Path_944" data-name="Path 944" d="M237.294,225.225v65.349h-2.222L187.153,231.8v58.774h-3.432V225.225h2.312l47.829,58.756V225.225Z" transform="translate(156.571 63.02)" fill="#fff"/>
        <path id="Path_945" data-name="Path 945" d="M246.449,271.663H209.087l-8.345,18.911h-3.7l29.468-65.349h2.6L258.5,290.574h-3.621Zm-36.07-2.962h34.86l-17.52-39.312Z" transform="translate(263.537 63.02)" fill="#fff"/>
        <path id="Path_946" data-name="Path 946" d="M264.823,225.225v65.349H262.6L214.682,231.8v58.774h-3.441V225.225h2.321l47.829,58.756V225.225Z" transform="translate(377.586 63.02)" fill="#fff"/>
        <path id="Path_947" data-name="Path 947" d="M283.025,276.625l2.682,2.321a34.622,34.622,0,0,1-26.6,12.327c-18.812,0-34.2-14.838-34.2-33s15.389-33.09,34.2-33.09a34.671,34.671,0,0,1,26.6,12.418l-2.682,2.321a30.973,30.973,0,0,0-23.914-11.316c-16.87,0-30.588,13.258-30.588,29.667s13.718,29.568,30.588,29.568A30.918,30.918,0,0,0,283.025,276.625Z" transform="translate(487.363 62.691)" fill="#fff"/>
        <path id="Path_948" data-name="Path 948" d="M284.295,287.332v3.242H239.338V225.225h43.006v3.242H242.77v28.827H276.6v3.152H242.77v26.886Z" transform="translate(603.236 63.02)" fill="#fff"/>
      </g>
      <g id="Group_3530" data-name="Group 3530" transform="translate(400.905 135.623)">
        <path id="Path_949" data-name="Path 949" d="M580.384,185.5c-59.443-52.236-150.287-49.861-206.83,5.437a11.562,11.562,0,0,0-3.495,8.679,12.051,12.051,0,0,0,4.091,8.715,11.853,11.853,0,0,0,16.238-.515c47.675-46.465,124.214-48.4,174.255-4.416A163.577,163.577,0,0,1,579.48,434c-2.953,3.36-6.051,6.674-9.2,9.817-76.99,77.008-201.412,80.955-283.269,9.013A262.279,262.279,0,0,1,199.976,224.4a11.915,11.915,0,0,0-23.679-2.673,286.18,286.18,0,0,0,94.971,249.014A231.516,231.516,0,0,0,587.13,460.691c3.468-3.468,6.927-7.162,10.259-10.937A187.455,187.455,0,0,0,580.384,185.5Z" transform="translate(-174.262 -37.536)" fill="url(#linear-gradient)"/>
        <path id="Path_950" data-name="Path 950" d="M342.673,577.734a168.539,168.539,0,0,0,35.935,3.884A166.642,166.642,0,0,0,496.663,532.57a164.445,164.445,0,0,0,44.469-81.433c14.775-67.833-25.856-137.2-92.505-157.909a12.088,12.088,0,0,0-9.708,1.084,11.7,11.7,0,0,0-5.617,7.731A11.962,11.962,0,0,0,441.609,316c54.909,17.1,88.387,74.227,76.232,130.057a140.646,140.646,0,0,1-62.378,89.2,142.775,142.775,0,0,1-107.714,19.182,181.383,181.383,0,0,1-114.442-79.094,178.732,178.732,0,0,1-24.854-136.072C234.58,219.326,350.422,141.812,472.179,162.855a11.922,11.922,0,0,0,3.983-23.508,253.771,253.771,0,0,0-184.6,39.177A250.448,250.448,0,0,0,185.162,334.2a202.422,202.422,0,0,0,28.132,154.107A205.064,205.064,0,0,0,342.673,577.734Z" transform="translate(-124.696 -135.623)" fill="url(#linear-gradient)"/>
        <path id="Path_951" data-name="Path 951" d="M384.232,142.6c-48.506-3.91-95.784,11.831-133.073,44.469s-60.084,78.146-64.166,128.142C180.111,399.222,240.881,473,322.441,479.671c3.3.262,6.584.4,9.835.4,58.4,0,108.843-42.672,119.482-102.819a12.148,12.148,0,0,0-2.321-9.546,11.689,11.689,0,0,0-8.426-4.57,12.005,12.005,0,0,0-12.734,10.015c-9.094,51.279-53.744,86.979-103.894,82.752-68.456-5.6-119.436-67.842-113.638-138.754,7.026-85.9,77.035-151.307,158.947-151.307,4.163,0,8.381.172,12.607.524,107.2,8.769,188.145,102.693,184.28,213.838A11.875,11.875,0,0,0,577.5,392.467v.009a12.043,12.043,0,0,0,8.914-2.989,11.848,11.848,0,0,0,4-8.516C594.692,257.118,504.129,152.4,384.232,142.6Z" transform="translate(-76.287 -84.268)" fill="url(#linear-gradient)"/>
      </g>
    </g>
  </g>
</svg>
